<mxfile host="app.diagrams.net" modified="2024-03-24T18:56:14.161Z" agent="Mozilla/5.0 (Windows NT 10.0; Win64; x64; rv:124.0) Gecko/20100101 Firefox/124.0" etag="McLIeJ0nextWgZBpSr2A" version="24.0.8" type="github" pages="4">
  <diagram name="Page-1" id="nt_lwoKvTf0yhxnvCyFA">
    <mxGraphModel dx="1318" dy="1653" grid="1" gridSize="10" guides="1" tooltips="1" connect="1" arrows="1" fold="1" page="1" pageScale="1" pageWidth="850" pageHeight="1100" math="0" shadow="0">
      <root>
        <mxCell id="0" />
        <mxCell id="1" parent="0" />
        <mxCell id="LCyz_QsbxFItUiyzZBKg-2" value="nama_genre" style="ellipse;whiteSpace=wrap;html=1;" vertex="1" parent="1">
          <mxGeometry x="600" y="320" width="90" height="60" as="geometry" />
        </mxCell>
        <mxCell id="LCyz_QsbxFItUiyzZBKg-5" style="edgeStyle=orthogonalEdgeStyle;rounded=0;orthogonalLoop=1;jettySize=auto;html=1;exitX=0.5;exitY=0;exitDx=0;exitDy=0;entryX=0.5;entryY=1;entryDx=0;entryDy=0;endArrow=none;" edge="1" parent="1" source="LCyz_QsbxFItUiyzZBKg-3" target="LCyz_QsbxFItUiyzZBKg-4">
          <mxGeometry relative="1" as="geometry" />
        </mxCell>
        <mxCell id="LCyz_QsbxFItUiyzZBKg-6" style="edgeStyle=orthogonalEdgeStyle;rounded=0;orthogonalLoop=1;jettySize=auto;html=1;exitX=0;exitY=0.5;exitDx=0;exitDy=0;entryX=1;entryY=0.5;entryDx=0;entryDy=0;endArrow=none;" edge="1" parent="1" source="LCyz_QsbxFItUiyzZBKg-3" target="LCyz_QsbxFItUiyzZBKg-2">
          <mxGeometry relative="1" as="geometry" />
        </mxCell>
        <mxCell id="LCyz_QsbxFItUiyzZBKg-8" style="edgeStyle=orthogonalEdgeStyle;rounded=0;orthogonalLoop=1;jettySize=auto;html=1;exitX=1;exitY=0.5;exitDx=0;exitDy=0;entryX=0;entryY=0.5;entryDx=0;entryDy=0;endArrow=none;" edge="1" parent="1" source="LCyz_QsbxFItUiyzZBKg-3" target="LCyz_QsbxFItUiyzZBKg-7">
          <mxGeometry relative="1" as="geometry" />
        </mxCell>
        <mxCell id="LCyz_QsbxFItUiyzZBKg-3" value="genre" style="rounded=0;whiteSpace=wrap;html=1;" vertex="1" parent="1">
          <mxGeometry x="730" y="320" width="120" height="60" as="geometry" />
        </mxCell>
        <mxCell id="LCyz_QsbxFItUiyzZBKg-4" value="&lt;div&gt;id&lt;/div&gt;" style="ellipse;whiteSpace=wrap;html=1;" vertex="1" parent="1">
          <mxGeometry x="745" y="220" width="90" height="60" as="geometry" />
        </mxCell>
        <mxCell id="LCyz_QsbxFItUiyzZBKg-10" style="edgeStyle=orthogonalEdgeStyle;rounded=0;orthogonalLoop=1;jettySize=auto;html=1;exitX=0.5;exitY=1;exitDx=0;exitDy=0;entryX=0.5;entryY=0;entryDx=0;entryDy=0;endArrow=none;" edge="1" parent="1" source="LCyz_QsbxFItUiyzZBKg-7" target="LCyz_QsbxFItUiyzZBKg-9">
          <mxGeometry relative="1" as="geometry" />
        </mxCell>
        <mxCell id="LCyz_QsbxFItUiyzZBKg-7" value="mempunyai" style="rhombus;whiteSpace=wrap;html=1;" vertex="1" parent="1">
          <mxGeometry x="930" y="310" width="80" height="80" as="geometry" />
        </mxCell>
        <mxCell id="LCyz_QsbxFItUiyzZBKg-29" style="edgeStyle=orthogonalEdgeStyle;rounded=0;orthogonalLoop=1;jettySize=auto;html=1;exitX=1;exitY=0;exitDx=0;exitDy=0;entryX=0;entryY=0.5;entryDx=0;entryDy=0;endArrow=none;" edge="1" parent="1" source="LCyz_QsbxFItUiyzZBKg-9" target="LCyz_QsbxFItUiyzZBKg-27">
          <mxGeometry relative="1" as="geometry" />
        </mxCell>
        <mxCell id="PbMNXhJ-m64G4oOmed-O-121" style="edgeStyle=orthogonalEdgeStyle;rounded=0;orthogonalLoop=1;jettySize=auto;html=1;exitX=1;exitY=0.25;exitDx=0;exitDy=0;entryX=0;entryY=0.5;entryDx=0;entryDy=0;endArrow=none;" edge="1" parent="1" source="LCyz_QsbxFItUiyzZBKg-9" target="PbMNXhJ-m64G4oOmed-O-120">
          <mxGeometry relative="1" as="geometry" />
        </mxCell>
        <mxCell id="LCyz_QsbxFItUiyzZBKg-9" value="film" style="rounded=0;whiteSpace=wrap;html=1;" vertex="1" parent="1">
          <mxGeometry x="910" y="420" width="120" height="60" as="geometry" />
        </mxCell>
        <mxCell id="LCyz_QsbxFItUiyzZBKg-19" style="edgeStyle=orthogonalEdgeStyle;rounded=0;orthogonalLoop=1;jettySize=auto;html=1;exitX=1;exitY=0.5;exitDx=0;exitDy=0;entryX=0;entryY=0.5;entryDx=0;entryDy=0;endArrow=none;" edge="1" parent="1" source="LCyz_QsbxFItUiyzZBKg-11" target="LCyz_QsbxFItUiyzZBKg-9">
          <mxGeometry relative="1" as="geometry" />
        </mxCell>
        <mxCell id="LCyz_QsbxFItUiyzZBKg-11" value="belasan_umur" style="ellipse;whiteSpace=wrap;html=1;" vertex="1" parent="1">
          <mxGeometry x="690" y="420" width="90" height="60" as="geometry" />
        </mxCell>
        <mxCell id="LCyz_QsbxFItUiyzZBKg-22" style="edgeStyle=orthogonalEdgeStyle;rounded=0;orthogonalLoop=1;jettySize=auto;html=1;exitX=0.5;exitY=0;exitDx=0;exitDy=0;entryX=0.5;entryY=1;entryDx=0;entryDy=0;endArrow=none;" edge="1" parent="1" source="LCyz_QsbxFItUiyzZBKg-12" target="LCyz_QsbxFItUiyzZBKg-9">
          <mxGeometry relative="1" as="geometry" />
        </mxCell>
        <mxCell id="LCyz_QsbxFItUiyzZBKg-12" value="sutradara" style="ellipse;whiteSpace=wrap;html=1;" vertex="1" parent="1">
          <mxGeometry x="910" y="620" width="90" height="60" as="geometry" />
        </mxCell>
        <mxCell id="LCyz_QsbxFItUiyzZBKg-20" style="edgeStyle=orthogonalEdgeStyle;rounded=0;orthogonalLoop=1;jettySize=auto;html=1;exitX=1;exitY=0.5;exitDx=0;exitDy=0;entryX=0;entryY=1;entryDx=0;entryDy=0;endArrow=none;" edge="1" parent="1" source="LCyz_QsbxFItUiyzZBKg-13" target="LCyz_QsbxFItUiyzZBKg-9">
          <mxGeometry relative="1" as="geometry" />
        </mxCell>
        <mxCell id="LCyz_QsbxFItUiyzZBKg-13" value="pemain" style="ellipse;whiteSpace=wrap;html=1;" vertex="1" parent="1">
          <mxGeometry x="680" y="490" width="90" height="60" as="geometry" />
        </mxCell>
        <mxCell id="LCyz_QsbxFItUiyzZBKg-21" style="edgeStyle=orthogonalEdgeStyle;rounded=0;orthogonalLoop=1;jettySize=auto;html=1;exitX=1;exitY=0.5;exitDx=0;exitDy=0;entryX=0.25;entryY=1;entryDx=0;entryDy=0;endArrow=none;" edge="1" parent="1" source="LCyz_QsbxFItUiyzZBKg-14" target="LCyz_QsbxFItUiyzZBKg-9">
          <mxGeometry relative="1" as="geometry" />
        </mxCell>
        <mxCell id="LCyz_QsbxFItUiyzZBKg-14" value="sinopsis" style="ellipse;whiteSpace=wrap;html=1;" vertex="1" parent="1">
          <mxGeometry x="745" y="540" width="90" height="60" as="geometry" />
        </mxCell>
        <mxCell id="LCyz_QsbxFItUiyzZBKg-15" value="durasi" style="ellipse;whiteSpace=wrap;html=1;" vertex="1" parent="1">
          <mxGeometry x="1020" y="630" width="90" height="60" as="geometry" />
        </mxCell>
        <mxCell id="LCyz_QsbxFItUiyzZBKg-26" style="edgeStyle=orthogonalEdgeStyle;rounded=0;orthogonalLoop=1;jettySize=auto;html=1;exitX=0;exitY=0.5;exitDx=0;exitDy=0;entryX=1;entryY=0.75;entryDx=0;entryDy=0;endArrow=none;" edge="1" parent="1" source="LCyz_QsbxFItUiyzZBKg-16" target="LCyz_QsbxFItUiyzZBKg-9">
          <mxGeometry relative="1" as="geometry" />
        </mxCell>
        <mxCell id="LCyz_QsbxFItUiyzZBKg-16" value="tahun" style="ellipse;whiteSpace=wrap;html=1;" vertex="1" parent="1">
          <mxGeometry x="1130" y="400" width="90" height="60" as="geometry" />
        </mxCell>
        <mxCell id="LCyz_QsbxFItUiyzZBKg-17" value="judul" style="ellipse;whiteSpace=wrap;html=1;" vertex="1" parent="1">
          <mxGeometry x="1100" y="530" width="90" height="60" as="geometry" />
        </mxCell>
        <mxCell id="LCyz_QsbxFItUiyzZBKg-25" style="edgeStyle=orthogonalEdgeStyle;rounded=0;orthogonalLoop=1;jettySize=auto;html=1;exitX=0;exitY=0;exitDx=0;exitDy=0;entryX=1;entryY=1;entryDx=0;entryDy=0;endArrow=none;" edge="1" parent="1" source="LCyz_QsbxFItUiyzZBKg-18" target="LCyz_QsbxFItUiyzZBKg-9">
          <mxGeometry relative="1" as="geometry" />
        </mxCell>
        <mxCell id="LCyz_QsbxFItUiyzZBKg-18" value="id" style="ellipse;whiteSpace=wrap;html=1;" vertex="1" parent="1">
          <mxGeometry x="1110" y="470" width="90" height="60" as="geometry" />
        </mxCell>
        <mxCell id="LCyz_QsbxFItUiyzZBKg-23" style="edgeStyle=orthogonalEdgeStyle;rounded=0;orthogonalLoop=1;jettySize=auto;html=1;exitX=0.5;exitY=0;exitDx=0;exitDy=0;entryX=0.659;entryY=1.038;entryDx=0;entryDy=0;entryPerimeter=0;endArrow=none;" edge="1" parent="1" source="LCyz_QsbxFItUiyzZBKg-15" target="LCyz_QsbxFItUiyzZBKg-9">
          <mxGeometry relative="1" as="geometry" />
        </mxCell>
        <mxCell id="LCyz_QsbxFItUiyzZBKg-24" style="edgeStyle=orthogonalEdgeStyle;rounded=0;orthogonalLoop=1;jettySize=auto;html=1;exitX=0;exitY=0;exitDx=0;exitDy=0;entryX=0.865;entryY=1.058;entryDx=0;entryDy=0;entryPerimeter=0;endArrow=none;" edge="1" parent="1" source="LCyz_QsbxFItUiyzZBKg-17" target="LCyz_QsbxFItUiyzZBKg-9">
          <mxGeometry relative="1" as="geometry" />
        </mxCell>
        <mxCell id="PbMNXhJ-m64G4oOmed-O-6" style="edgeStyle=orthogonalEdgeStyle;rounded=0;orthogonalLoop=1;jettySize=auto;html=1;exitX=0.5;exitY=0;exitDx=0;exitDy=0;entryX=0.5;entryY=1;entryDx=0;entryDy=0;endArrow=none;" edge="1" parent="1" source="LCyz_QsbxFItUiyzZBKg-27" target="PbMNXhJ-m64G4oOmed-O-2">
          <mxGeometry relative="1" as="geometry" />
        </mxCell>
        <mxCell id="PbMNXhJ-m64G4oOmed-O-124" style="edgeStyle=orthogonalEdgeStyle;rounded=0;orthogonalLoop=1;jettySize=auto;html=1;exitX=1;exitY=0.5;exitDx=0;exitDy=0;entryX=0;entryY=0;entryDx=0;entryDy=0;endArrow=none;" edge="1" parent="1" source="LCyz_QsbxFItUiyzZBKg-27" target="LCyz_QsbxFItUiyzZBKg-30">
          <mxGeometry relative="1" as="geometry" />
        </mxCell>
        <mxCell id="LCyz_QsbxFItUiyzZBKg-27" value="memiliki" style="rhombus;whiteSpace=wrap;html=1;" vertex="1" parent="1">
          <mxGeometry x="1190" y="260" width="80" height="80" as="geometry" />
        </mxCell>
        <mxCell id="LCyz_QsbxFItUiyzZBKg-35" style="edgeStyle=orthogonalEdgeStyle;rounded=0;orthogonalLoop=1;jettySize=auto;html=1;exitX=0;exitY=1;exitDx=0;exitDy=0;entryX=0.5;entryY=0;entryDx=0;entryDy=0;endArrow=none;" edge="1" parent="1" source="LCyz_QsbxFItUiyzZBKg-30" target="LCyz_QsbxFItUiyzZBKg-32">
          <mxGeometry relative="1" as="geometry" />
        </mxCell>
        <mxCell id="LCyz_QsbxFItUiyzZBKg-37" style="edgeStyle=orthogonalEdgeStyle;rounded=0;orthogonalLoop=1;jettySize=auto;html=1;exitX=1;exitY=1;exitDx=0;exitDy=0;entryX=0;entryY=0.5;entryDx=0;entryDy=0;endArrow=none;" edge="1" parent="1" source="LCyz_QsbxFItUiyzZBKg-30" target="LCyz_QsbxFItUiyzZBKg-31">
          <mxGeometry relative="1" as="geometry" />
        </mxCell>
        <mxCell id="PbMNXhJ-m64G4oOmed-O-1" style="edgeStyle=orthogonalEdgeStyle;rounded=0;orthogonalLoop=1;jettySize=auto;html=1;exitX=1;exitY=0.5;exitDx=0;exitDy=0;entryX=0;entryY=0.5;entryDx=0;entryDy=0;endArrow=none;" edge="1" parent="1" source="LCyz_QsbxFItUiyzZBKg-30" target="LCyz_QsbxFItUiyzZBKg-38">
          <mxGeometry relative="1" as="geometry" />
        </mxCell>
        <mxCell id="LCyz_QsbxFItUiyzZBKg-30" value="jadwal" style="rounded=0;whiteSpace=wrap;html=1;" vertex="1" parent="1">
          <mxGeometry x="1300" y="420" width="120" height="60" as="geometry" />
        </mxCell>
        <mxCell id="LCyz_QsbxFItUiyzZBKg-31" value="sesi" style="ellipse;whiteSpace=wrap;html=1;" vertex="1" parent="1">
          <mxGeometry x="1410" y="510" width="90" height="60" as="geometry" />
        </mxCell>
        <mxCell id="LCyz_QsbxFItUiyzZBKg-32" value="tanggal" style="ellipse;whiteSpace=wrap;html=1;" vertex="1" parent="1">
          <mxGeometry x="1210" y="540" width="90" height="60" as="geometry" />
        </mxCell>
        <mxCell id="LCyz_QsbxFItUiyzZBKg-33" value="id" style="ellipse;whiteSpace=wrap;html=1;" vertex="1" parent="1">
          <mxGeometry x="1310" y="560" width="90" height="60" as="geometry" />
        </mxCell>
        <mxCell id="LCyz_QsbxFItUiyzZBKg-36" style="edgeStyle=orthogonalEdgeStyle;rounded=0;orthogonalLoop=1;jettySize=auto;html=1;exitX=0.5;exitY=1;exitDx=0;exitDy=0;entryX=0.421;entryY=0.019;entryDx=0;entryDy=0;entryPerimeter=0;endArrow=none;" edge="1" parent="1" source="LCyz_QsbxFItUiyzZBKg-30" target="LCyz_QsbxFItUiyzZBKg-33">
          <mxGeometry relative="1" as="geometry" />
        </mxCell>
        <mxCell id="PbMNXhJ-m64G4oOmed-O-52" style="edgeStyle=orthogonalEdgeStyle;rounded=0;orthogonalLoop=1;jettySize=auto;html=1;exitX=1;exitY=0.5;exitDx=0;exitDy=0;entryX=0.25;entryY=1;entryDx=0;entryDy=0;endArrow=none;" edge="1" parent="1" source="LCyz_QsbxFItUiyzZBKg-38" target="PbMNXhJ-m64G4oOmed-O-50">
          <mxGeometry relative="1" as="geometry" />
        </mxCell>
        <mxCell id="LCyz_QsbxFItUiyzZBKg-38" value="terdapat pada" style="rhombus;whiteSpace=wrap;html=1;" vertex="1" parent="1">
          <mxGeometry x="1520" y="370" width="110" height="80" as="geometry" />
        </mxCell>
        <mxCell id="PbMNXhJ-m64G4oOmed-O-11" style="edgeStyle=orthogonalEdgeStyle;rounded=0;orthogonalLoop=1;jettySize=auto;html=1;exitX=0;exitY=0.5;exitDx=0;exitDy=0;entryX=1;entryY=0.5;entryDx=0;entryDy=0;endArrow=none;" edge="1" parent="1" source="PbMNXhJ-m64G4oOmed-O-2" target="PbMNXhJ-m64G4oOmed-O-10">
          <mxGeometry relative="1" as="geometry" />
        </mxCell>
        <mxCell id="PbMNXhJ-m64G4oOmed-O-24" style="edgeStyle=orthogonalEdgeStyle;rounded=0;orthogonalLoop=1;jettySize=auto;html=1;exitX=0.5;exitY=0;exitDx=0;exitDy=0;endArrow=none;" edge="1" parent="1" source="PbMNXhJ-m64G4oOmed-O-2" target="PbMNXhJ-m64G4oOmed-O-21">
          <mxGeometry relative="1" as="geometry" />
        </mxCell>
        <mxCell id="PbMNXhJ-m64G4oOmed-O-2" value="ruang" style="rounded=0;whiteSpace=wrap;html=1;" vertex="1" parent="1">
          <mxGeometry x="1160" y="160" width="120" height="60" as="geometry" />
        </mxCell>
        <mxCell id="PbMNXhJ-m64G4oOmed-O-3" value="kapasitas" style="ellipse;whiteSpace=wrap;html=1;" vertex="1" parent="1">
          <mxGeometry x="1390" y="170" width="90" height="60" as="geometry" />
        </mxCell>
        <mxCell id="PbMNXhJ-m64G4oOmed-O-9" style="edgeStyle=orthogonalEdgeStyle;rounded=0;orthogonalLoop=1;jettySize=auto;html=1;exitX=1;exitY=0.5;exitDx=0;exitDy=0;entryX=0;entryY=1;entryDx=0;entryDy=0;endArrow=none;" edge="1" parent="1" source="PbMNXhJ-m64G4oOmed-O-4" target="PbMNXhJ-m64G4oOmed-O-2">
          <mxGeometry relative="1" as="geometry" />
        </mxCell>
        <mxCell id="PbMNXhJ-m64G4oOmed-O-4" value="nama_ruang" style="ellipse;whiteSpace=wrap;html=1;" vertex="1" parent="1">
          <mxGeometry x="1050" y="230" width="90" height="60" as="geometry" />
        </mxCell>
        <mxCell id="PbMNXhJ-m64G4oOmed-O-5" value="id" style="ellipse;whiteSpace=wrap;html=1;" vertex="1" parent="1">
          <mxGeometry x="1310" y="260" width="90" height="60" as="geometry" />
        </mxCell>
        <mxCell id="PbMNXhJ-m64G4oOmed-O-7" style="edgeStyle=orthogonalEdgeStyle;rounded=0;orthogonalLoop=1;jettySize=auto;html=1;exitX=0.75;exitY=1;exitDx=0;exitDy=0;entryX=-0.02;entryY=0.689;entryDx=0;entryDy=0;entryPerimeter=0;endArrow=none;" edge="1" parent="1" source="PbMNXhJ-m64G4oOmed-O-2" target="PbMNXhJ-m64G4oOmed-O-5">
          <mxGeometry relative="1" as="geometry" />
        </mxCell>
        <mxCell id="PbMNXhJ-m64G4oOmed-O-8" style="edgeStyle=orthogonalEdgeStyle;rounded=0;orthogonalLoop=1;jettySize=auto;html=1;exitX=0.5;exitY=0;exitDx=0;exitDy=0;entryX=1.013;entryY=0.393;entryDx=0;entryDy=0;entryPerimeter=0;endArrow=none;" edge="1" parent="1" source="PbMNXhJ-m64G4oOmed-O-3" target="PbMNXhJ-m64G4oOmed-O-2">
          <mxGeometry relative="1" as="geometry" />
        </mxCell>
        <mxCell id="PbMNXhJ-m64G4oOmed-O-13" style="edgeStyle=orthogonalEdgeStyle;rounded=0;orthogonalLoop=1;jettySize=auto;html=1;exitX=0;exitY=0.5;exitDx=0;exitDy=0;entryX=0.25;entryY=1;entryDx=0;entryDy=0;endArrow=none;" edge="1" parent="1" source="PbMNXhJ-m64G4oOmed-O-10" target="PbMNXhJ-m64G4oOmed-O-12">
          <mxGeometry relative="1" as="geometry" />
        </mxCell>
        <mxCell id="PbMNXhJ-m64G4oOmed-O-10" value="memiliki" style="rhombus;whiteSpace=wrap;html=1;" vertex="1" parent="1">
          <mxGeometry x="1025" y="120" width="80" height="80" as="geometry" />
        </mxCell>
        <mxCell id="PbMNXhJ-m64G4oOmed-O-19" style="edgeStyle=orthogonalEdgeStyle;rounded=0;orthogonalLoop=1;jettySize=auto;html=1;exitX=0.25;exitY=0;exitDx=0;exitDy=0;entryX=0;entryY=1;entryDx=0;entryDy=0;endArrow=none;" edge="1" parent="1" source="PbMNXhJ-m64G4oOmed-O-12" target="PbMNXhJ-m64G4oOmed-O-16">
          <mxGeometry relative="1" as="geometry" />
        </mxCell>
        <mxCell id="PbMNXhJ-m64G4oOmed-O-20" style="edgeStyle=orthogonalEdgeStyle;rounded=0;orthogonalLoop=1;jettySize=auto;html=1;exitX=0.75;exitY=0;exitDx=0;exitDy=0;entryX=0;entryY=1;entryDx=0;entryDy=0;endArrow=none;" edge="1" parent="1" source="PbMNXhJ-m64G4oOmed-O-12" target="PbMNXhJ-m64G4oOmed-O-15">
          <mxGeometry relative="1" as="geometry" />
        </mxCell>
        <mxCell id="PbMNXhJ-m64G4oOmed-O-12" value="&lt;div&gt;lokasi_bioskop&lt;br&gt;&lt;/div&gt;" style="rounded=0;whiteSpace=wrap;html=1;" vertex="1" parent="1">
          <mxGeometry x="865" y="70" width="120" height="60" as="geometry" />
        </mxCell>
        <mxCell id="PbMNXhJ-m64G4oOmed-O-14" value="&lt;div&gt;id&lt;/div&gt;" style="ellipse;whiteSpace=wrap;html=1;" vertex="1" parent="1">
          <mxGeometry x="745" y="10" width="90" height="60" as="geometry" />
        </mxCell>
        <mxCell id="PbMNXhJ-m64G4oOmed-O-15" value="alamat" style="ellipse;whiteSpace=wrap;html=1;" vertex="1" parent="1">
          <mxGeometry x="990" y="-30" width="90" height="60" as="geometry" />
        </mxCell>
        <mxCell id="PbMNXhJ-m64G4oOmed-O-16" value="nama_lokasi" style="ellipse;whiteSpace=wrap;html=1;" vertex="1" parent="1">
          <mxGeometry x="890" y="-40" width="90" height="60" as="geometry" />
        </mxCell>
        <mxCell id="PbMNXhJ-m64G4oOmed-O-18" style="edgeStyle=orthogonalEdgeStyle;rounded=0;orthogonalLoop=1;jettySize=auto;html=1;exitX=0;exitY=0.5;exitDx=0;exitDy=0;entryX=0.669;entryY=0.987;entryDx=0;entryDy=0;entryPerimeter=0;endArrow=none;" edge="1" parent="1" source="PbMNXhJ-m64G4oOmed-O-12" target="PbMNXhJ-m64G4oOmed-O-14">
          <mxGeometry relative="1" as="geometry" />
        </mxCell>
        <mxCell id="PbMNXhJ-m64G4oOmed-O-25" style="edgeStyle=orthogonalEdgeStyle;rounded=0;orthogonalLoop=1;jettySize=auto;html=1;exitX=0.5;exitY=0;exitDx=0;exitDy=0;endArrow=none;" edge="1" parent="1" source="PbMNXhJ-m64G4oOmed-O-21" target="PbMNXhJ-m64G4oOmed-O-23">
          <mxGeometry relative="1" as="geometry" />
        </mxCell>
        <mxCell id="PbMNXhJ-m64G4oOmed-O-21" value="memiliki" style="rhombus;whiteSpace=wrap;html=1;" vertex="1" parent="1">
          <mxGeometry x="1190" y="50" width="80" height="80" as="geometry" />
        </mxCell>
        <mxCell id="PbMNXhJ-m64G4oOmed-O-22" value="&lt;div&gt;id&lt;/div&gt;" style="ellipse;whiteSpace=wrap;html=1;" vertex="1" parent="1">
          <mxGeometry x="1060" y="30" width="90" height="60" as="geometry" />
        </mxCell>
        <mxCell id="PbMNXhJ-m64G4oOmed-O-30" style="edgeStyle=orthogonalEdgeStyle;rounded=0;orthogonalLoop=1;jettySize=auto;html=1;exitX=0;exitY=0;exitDx=0;exitDy=0;entryX=1;entryY=0.5;entryDx=0;entryDy=0;endArrow=none;" edge="1" parent="1" source="PbMNXhJ-m64G4oOmed-O-23" target="PbMNXhJ-m64G4oOmed-O-28">
          <mxGeometry relative="1" as="geometry" />
        </mxCell>
        <mxCell id="PbMNXhJ-m64G4oOmed-O-31" style="edgeStyle=orthogonalEdgeStyle;rounded=0;orthogonalLoop=1;jettySize=auto;html=1;exitX=0.25;exitY=0;exitDx=0;exitDy=0;entryX=0.5;entryY=1;entryDx=0;entryDy=0;endArrow=none;" edge="1" parent="1" source="PbMNXhJ-m64G4oOmed-O-23" target="PbMNXhJ-m64G4oOmed-O-27">
          <mxGeometry relative="1" as="geometry" />
        </mxCell>
        <mxCell id="PbMNXhJ-m64G4oOmed-O-33" style="edgeStyle=orthogonalEdgeStyle;rounded=0;orthogonalLoop=1;jettySize=auto;html=1;exitX=1;exitY=0.5;exitDx=0;exitDy=0;entryX=0;entryY=0.5;entryDx=0;entryDy=0;endArrow=none;" edge="1" parent="1" source="PbMNXhJ-m64G4oOmed-O-23" target="PbMNXhJ-m64G4oOmed-O-32">
          <mxGeometry relative="1" as="geometry" />
        </mxCell>
        <mxCell id="PbMNXhJ-m64G4oOmed-O-23" value="kursi" style="rounded=0;whiteSpace=wrap;html=1;" vertex="1" parent="1">
          <mxGeometry x="1200" y="-60" width="120" height="60" as="geometry" />
        </mxCell>
        <mxCell id="PbMNXhJ-m64G4oOmed-O-26" style="edgeStyle=orthogonalEdgeStyle;rounded=0;orthogonalLoop=1;jettySize=auto;html=1;exitX=0;exitY=0.5;exitDx=0;exitDy=0;entryX=0.613;entryY=1.004;entryDx=0;entryDy=0;entryPerimeter=0;endArrow=none;" edge="1" parent="1" source="PbMNXhJ-m64G4oOmed-O-23" target="PbMNXhJ-m64G4oOmed-O-22">
          <mxGeometry relative="1" as="geometry" />
        </mxCell>
        <mxCell id="PbMNXhJ-m64G4oOmed-O-27" value="status" style="ellipse;whiteSpace=wrap;html=1;" vertex="1" parent="1">
          <mxGeometry x="1190" y="-180" width="90" height="60" as="geometry" />
        </mxCell>
        <mxCell id="PbMNXhJ-m64G4oOmed-O-28" value="nama_kursi" style="ellipse;whiteSpace=wrap;html=1;" vertex="1" parent="1">
          <mxGeometry x="1080" y="-90" width="90" height="60" as="geometry" />
        </mxCell>
        <mxCell id="PbMNXhJ-m64G4oOmed-O-41" style="edgeStyle=orthogonalEdgeStyle;rounded=0;orthogonalLoop=1;jettySize=auto;html=1;exitX=1;exitY=0.5;exitDx=0;exitDy=0;entryX=0;entryY=0.5;entryDx=0;entryDy=0;endArrow=none;" edge="1" parent="1" source="PbMNXhJ-m64G4oOmed-O-32" target="PbMNXhJ-m64G4oOmed-O-34">
          <mxGeometry relative="1" as="geometry" />
        </mxCell>
        <mxCell id="PbMNXhJ-m64G4oOmed-O-32" value="memiliki" style="rhombus;whiteSpace=wrap;html=1;" vertex="1" parent="1">
          <mxGeometry x="1420" y="-70" width="80" height="80" as="geometry" />
        </mxCell>
        <mxCell id="PbMNXhJ-m64G4oOmed-O-42" style="edgeStyle=orthogonalEdgeStyle;rounded=0;orthogonalLoop=1;jettySize=auto;html=1;exitX=0;exitY=0;exitDx=0;exitDy=0;entryX=0.5;entryY=1;entryDx=0;entryDy=0;endArrow=none;" edge="1" parent="1" source="PbMNXhJ-m64G4oOmed-O-34" target="PbMNXhJ-m64G4oOmed-O-35">
          <mxGeometry relative="1" as="geometry" />
        </mxCell>
        <mxCell id="PbMNXhJ-m64G4oOmed-O-43" style="edgeStyle=orthogonalEdgeStyle;rounded=0;orthogonalLoop=1;jettySize=auto;html=1;exitX=0.25;exitY=0;exitDx=0;exitDy=0;endArrow=none;" edge="1" parent="1" source="PbMNXhJ-m64G4oOmed-O-34" target="PbMNXhJ-m64G4oOmed-O-40">
          <mxGeometry relative="1" as="geometry" />
        </mxCell>
        <mxCell id="PbMNXhJ-m64G4oOmed-O-44" style="edgeStyle=orthogonalEdgeStyle;rounded=0;orthogonalLoop=1;jettySize=auto;html=1;exitX=0.5;exitY=0;exitDx=0;exitDy=0;endArrow=none;" edge="1" parent="1" source="PbMNXhJ-m64G4oOmed-O-34" target="PbMNXhJ-m64G4oOmed-O-37">
          <mxGeometry relative="1" as="geometry" />
        </mxCell>
        <mxCell id="PbMNXhJ-m64G4oOmed-O-46" style="edgeStyle=orthogonalEdgeStyle;rounded=0;orthogonalLoop=1;jettySize=auto;html=1;exitX=1;exitY=0.25;exitDx=0;exitDy=0;entryX=0;entryY=0.5;entryDx=0;entryDy=0;endArrow=none;" edge="1" parent="1" source="PbMNXhJ-m64G4oOmed-O-34" target="PbMNXhJ-m64G4oOmed-O-36">
          <mxGeometry relative="1" as="geometry" />
        </mxCell>
        <mxCell id="PbMNXhJ-m64G4oOmed-O-49" style="edgeStyle=orthogonalEdgeStyle;rounded=0;orthogonalLoop=1;jettySize=auto;html=1;exitX=0.5;exitY=1;exitDx=0;exitDy=0;entryX=0.5;entryY=0;entryDx=0;entryDy=0;endArrow=none;" edge="1" parent="1" source="PbMNXhJ-m64G4oOmed-O-34" target="PbMNXhJ-m64G4oOmed-O-47">
          <mxGeometry relative="1" as="geometry" />
        </mxCell>
        <mxCell id="PbMNXhJ-m64G4oOmed-O-34" value="tiket" style="rounded=0;whiteSpace=wrap;html=1;" vertex="1" parent="1">
          <mxGeometry x="1590" y="-60" width="120" height="60" as="geometry" />
        </mxCell>
        <mxCell id="PbMNXhJ-m64G4oOmed-O-35" value="id" style="ellipse;whiteSpace=wrap;html=1;" vertex="1" parent="1">
          <mxGeometry x="1470" y="-160" width="90" height="60" as="geometry" />
        </mxCell>
        <mxCell id="PbMNXhJ-m64G4oOmed-O-36" value="&lt;div&gt;id_pemesanan&lt;/div&gt;" style="ellipse;whiteSpace=wrap;html=1;" vertex="1" parent="1">
          <mxGeometry x="1780" y="-80" width="90" height="60" as="geometry" />
        </mxCell>
        <mxCell id="PbMNXhJ-m64G4oOmed-O-37" value="harga" style="ellipse;whiteSpace=wrap;html=1;" vertex="1" parent="1">
          <mxGeometry x="1650" y="-240" width="90" height="60" as="geometry" />
        </mxCell>
        <mxCell id="PbMNXhJ-m64G4oOmed-O-39" value="id_kursi" style="ellipse;whiteSpace=wrap;html=1;" vertex="1" parent="1">
          <mxGeometry x="1740" y="-180" width="90" height="60" as="geometry" />
        </mxCell>
        <mxCell id="PbMNXhJ-m64G4oOmed-O-40" value="judul_film" style="ellipse;whiteSpace=wrap;html=1;" vertex="1" parent="1">
          <mxGeometry x="1530" y="-230" width="90" height="60" as="geometry" />
        </mxCell>
        <mxCell id="PbMNXhJ-m64G4oOmed-O-45" style="edgeStyle=orthogonalEdgeStyle;rounded=0;orthogonalLoop=1;jettySize=auto;html=1;exitX=0.75;exitY=0;exitDx=0;exitDy=0;entryX=0.231;entryY=0.901;entryDx=0;entryDy=0;entryPerimeter=0;endArrow=none;" edge="1" parent="1" source="PbMNXhJ-m64G4oOmed-O-34" target="PbMNXhJ-m64G4oOmed-O-39">
          <mxGeometry relative="1" as="geometry" />
        </mxCell>
        <mxCell id="PbMNXhJ-m64G4oOmed-O-51" style="edgeStyle=orthogonalEdgeStyle;rounded=0;orthogonalLoop=1;jettySize=auto;html=1;exitX=0.5;exitY=1;exitDx=0;exitDy=0;entryX=0.5;entryY=0;entryDx=0;entryDy=0;endArrow=none;" edge="1" parent="1" source="PbMNXhJ-m64G4oOmed-O-47" target="PbMNXhJ-m64G4oOmed-O-50">
          <mxGeometry relative="1" as="geometry" />
        </mxCell>
        <mxCell id="PbMNXhJ-m64G4oOmed-O-47" value="barang_dipesan" style="rhombus;whiteSpace=wrap;html=1;" vertex="1" parent="1">
          <mxGeometry x="1650" y="40" width="120" height="80" as="geometry" />
        </mxCell>
        <mxCell id="PbMNXhJ-m64G4oOmed-O-60" style="edgeStyle=orthogonalEdgeStyle;rounded=0;orthogonalLoop=1;jettySize=auto;html=1;exitX=0;exitY=0.75;exitDx=0;exitDy=0;entryX=1;entryY=0.5;entryDx=0;entryDy=0;endArrow=none;" edge="1" parent="1" source="PbMNXhJ-m64G4oOmed-O-50" target="PbMNXhJ-m64G4oOmed-O-56">
          <mxGeometry relative="1" as="geometry" />
        </mxCell>
        <mxCell id="PbMNXhJ-m64G4oOmed-O-61" style="edgeStyle=orthogonalEdgeStyle;rounded=0;orthogonalLoop=1;jettySize=auto;html=1;exitX=0;exitY=0.25;exitDx=0;exitDy=0;endArrow=none;" edge="1" parent="1" source="PbMNXhJ-m64G4oOmed-O-50" target="PbMNXhJ-m64G4oOmed-O-57">
          <mxGeometry relative="1" as="geometry" />
        </mxCell>
        <mxCell id="PbMNXhJ-m64G4oOmed-O-62" style="edgeStyle=orthogonalEdgeStyle;rounded=0;orthogonalLoop=1;jettySize=auto;html=1;exitX=0;exitY=0;exitDx=0;exitDy=0;endArrow=none;" edge="1" parent="1" source="PbMNXhJ-m64G4oOmed-O-50" target="PbMNXhJ-m64G4oOmed-O-58">
          <mxGeometry relative="1" as="geometry" />
        </mxCell>
        <mxCell id="PbMNXhJ-m64G4oOmed-O-64" style="edgeStyle=orthogonalEdgeStyle;rounded=0;orthogonalLoop=1;jettySize=auto;html=1;exitX=1;exitY=0;exitDx=0;exitDy=0;entryX=0;entryY=1;entryDx=0;entryDy=0;endArrow=none;" edge="1" parent="1" source="PbMNXhJ-m64G4oOmed-O-50" target="PbMNXhJ-m64G4oOmed-O-55">
          <mxGeometry relative="1" as="geometry" />
        </mxCell>
        <mxCell id="PbMNXhJ-m64G4oOmed-O-68" style="edgeStyle=orthogonalEdgeStyle;rounded=0;orthogonalLoop=1;jettySize=auto;html=1;exitX=0.5;exitY=1;exitDx=0;exitDy=0;entryX=0.5;entryY=0;entryDx=0;entryDy=0;endArrow=none;" edge="1" parent="1" source="PbMNXhJ-m64G4oOmed-O-50" target="PbMNXhJ-m64G4oOmed-O-67">
          <mxGeometry relative="1" as="geometry" />
        </mxCell>
        <mxCell id="PbMNXhJ-m64G4oOmed-O-81" style="edgeStyle=orthogonalEdgeStyle;rounded=0;orthogonalLoop=1;jettySize=auto;html=1;exitX=0.75;exitY=1;exitDx=0;exitDy=0;entryX=0;entryY=0.5;entryDx=0;entryDy=0;endArrow=none;" edge="1" parent="1" source="PbMNXhJ-m64G4oOmed-O-50" target="PbMNXhJ-m64G4oOmed-O-80">
          <mxGeometry relative="1" as="geometry" />
        </mxCell>
        <mxCell id="PbMNXhJ-m64G4oOmed-O-50" value="pemesanan" style="rounded=0;whiteSpace=wrap;html=1;" vertex="1" parent="1">
          <mxGeometry x="1720" y="200" width="120" height="60" as="geometry" />
        </mxCell>
        <mxCell id="PbMNXhJ-m64G4oOmed-O-53" value="metode_pembayaan" style="ellipse;whiteSpace=wrap;html=1;" vertex="1" parent="1">
          <mxGeometry x="1910" y="170" width="120" height="60" as="geometry" />
        </mxCell>
        <mxCell id="PbMNXhJ-m64G4oOmed-O-54" value="jumlah_tiket" style="ellipse;whiteSpace=wrap;html=1;" vertex="1" parent="1">
          <mxGeometry x="1790" y="80" width="90" height="60" as="geometry" />
        </mxCell>
        <mxCell id="PbMNXhJ-m64G4oOmed-O-55" value="total_harga" style="ellipse;whiteSpace=wrap;html=1;" vertex="1" parent="1">
          <mxGeometry x="1890" y="100" width="90" height="60" as="geometry" />
        </mxCell>
        <mxCell id="PbMNXhJ-m64G4oOmed-O-56" value="waktu" style="ellipse;whiteSpace=wrap;html=1;" vertex="1" parent="1">
          <mxGeometry x="1560" y="290" width="90" height="60" as="geometry" />
        </mxCell>
        <mxCell id="PbMNXhJ-m64G4oOmed-O-57" value="tanggal" style="ellipse;whiteSpace=wrap;html=1;" vertex="1" parent="1">
          <mxGeometry x="1500" y="190" width="90" height="60" as="geometry" />
        </mxCell>
        <mxCell id="PbMNXhJ-m64G4oOmed-O-58" value="id" style="ellipse;whiteSpace=wrap;html=1;" vertex="1" parent="1">
          <mxGeometry x="1560" y="110" width="90" height="60" as="geometry" />
        </mxCell>
        <mxCell id="PbMNXhJ-m64G4oOmed-O-59" value="status_pembayaran" style="ellipse;whiteSpace=wrap;html=1;" vertex="1" parent="1">
          <mxGeometry x="1890" y="250" width="120" height="60" as="geometry" />
        </mxCell>
        <mxCell id="PbMNXhJ-m64G4oOmed-O-63" style="edgeStyle=orthogonalEdgeStyle;rounded=0;orthogonalLoop=1;jettySize=auto;html=1;exitX=0.75;exitY=0;exitDx=0;exitDy=0;entryX=0.395;entryY=0.999;entryDx=0;entryDy=0;entryPerimeter=0;endArrow=none;" edge="1" parent="1" source="PbMNXhJ-m64G4oOmed-O-50" target="PbMNXhJ-m64G4oOmed-O-54">
          <mxGeometry relative="1" as="geometry" />
        </mxCell>
        <mxCell id="PbMNXhJ-m64G4oOmed-O-65" style="edgeStyle=orthogonalEdgeStyle;rounded=0;orthogonalLoop=1;jettySize=auto;html=1;exitX=1;exitY=0.25;exitDx=0;exitDy=0;entryX=0.002;entryY=0.636;entryDx=0;entryDy=0;entryPerimeter=0;endArrow=none;" edge="1" parent="1" source="PbMNXhJ-m64G4oOmed-O-50" target="PbMNXhJ-m64G4oOmed-O-53">
          <mxGeometry relative="1" as="geometry" />
        </mxCell>
        <mxCell id="PbMNXhJ-m64G4oOmed-O-66" style="edgeStyle=orthogonalEdgeStyle;rounded=0;orthogonalLoop=1;jettySize=auto;html=1;exitX=1;exitY=0.5;exitDx=0;exitDy=0;entryX=0.041;entryY=0.244;entryDx=0;entryDy=0;entryPerimeter=0;endArrow=none;" edge="1" parent="1" source="PbMNXhJ-m64G4oOmed-O-50" target="PbMNXhJ-m64G4oOmed-O-59">
          <mxGeometry relative="1" as="geometry" />
        </mxCell>
        <mxCell id="PbMNXhJ-m64G4oOmed-O-70" style="edgeStyle=orthogonalEdgeStyle;rounded=0;orthogonalLoop=1;jettySize=auto;html=1;exitX=0.5;exitY=1;exitDx=0;exitDy=0;endArrow=none;" edge="1" parent="1" source="PbMNXhJ-m64G4oOmed-O-67" target="PbMNXhJ-m64G4oOmed-O-69">
          <mxGeometry relative="1" as="geometry" />
        </mxCell>
        <mxCell id="PbMNXhJ-m64G4oOmed-O-67" value="melakukan" style="rhombus;whiteSpace=wrap;html=1;" vertex="1" parent="1">
          <mxGeometry x="1740" y="450" width="80" height="80" as="geometry" />
        </mxCell>
        <mxCell id="PbMNXhJ-m64G4oOmed-O-79" style="edgeStyle=orthogonalEdgeStyle;rounded=0;orthogonalLoop=1;jettySize=auto;html=1;exitX=1;exitY=0.5;exitDx=0;exitDy=0;entryX=0;entryY=0.5;entryDx=0;entryDy=0;endArrow=none;" edge="1" parent="1" source="PbMNXhJ-m64G4oOmed-O-69" target="PbMNXhJ-m64G4oOmed-O-73">
          <mxGeometry relative="1" as="geometry" />
        </mxCell>
        <mxCell id="PbMNXhJ-m64G4oOmed-O-69" value="pengunjung" style="rounded=0;whiteSpace=wrap;html=1;" vertex="1" parent="1">
          <mxGeometry x="1720" y="570" width="120" height="60" as="geometry" />
        </mxCell>
        <mxCell id="PbMNXhJ-m64G4oOmed-O-71" value="id" style="ellipse;whiteSpace=wrap;html=1;" vertex="1" parent="1">
          <mxGeometry x="1580" y="590" width="90" height="60" as="geometry" />
        </mxCell>
        <mxCell id="PbMNXhJ-m64G4oOmed-O-73" value="nama" style="ellipse;whiteSpace=wrap;html=1;" vertex="1" parent="1">
          <mxGeometry x="1890" y="580" width="90" height="60" as="geometry" />
        </mxCell>
        <mxCell id="PbMNXhJ-m64G4oOmed-O-74" value="noo_telp" style="ellipse;whiteSpace=wrap;html=1;" vertex="1" parent="1">
          <mxGeometry x="1665" y="660" width="90" height="60" as="geometry" />
        </mxCell>
        <mxCell id="PbMNXhJ-m64G4oOmed-O-75" value="email" style="ellipse;whiteSpace=wrap;html=1;" vertex="1" parent="1">
          <mxGeometry x="1790" y="670" width="90" height="60" as="geometry" />
        </mxCell>
        <mxCell id="PbMNXhJ-m64G4oOmed-O-76" style="edgeStyle=orthogonalEdgeStyle;rounded=0;orthogonalLoop=1;jettySize=auto;html=1;exitX=0;exitY=0.5;exitDx=0;exitDy=0;entryX=1.003;entryY=0.381;entryDx=0;entryDy=0;entryPerimeter=0;endArrow=none;" edge="1" parent="1" source="PbMNXhJ-m64G4oOmed-O-69" target="PbMNXhJ-m64G4oOmed-O-71">
          <mxGeometry relative="1" as="geometry" />
        </mxCell>
        <mxCell id="PbMNXhJ-m64G4oOmed-O-77" style="edgeStyle=orthogonalEdgeStyle;rounded=0;orthogonalLoop=1;jettySize=auto;html=1;exitX=0.25;exitY=1;exitDx=0;exitDy=0;entryX=0.659;entryY=0.019;entryDx=0;entryDy=0;entryPerimeter=0;endArrow=none;" edge="1" parent="1" source="PbMNXhJ-m64G4oOmed-O-69" target="PbMNXhJ-m64G4oOmed-O-74">
          <mxGeometry relative="1" as="geometry" />
        </mxCell>
        <mxCell id="PbMNXhJ-m64G4oOmed-O-78" style="edgeStyle=orthogonalEdgeStyle;rounded=0;orthogonalLoop=1;jettySize=auto;html=1;exitX=0.75;exitY=1;exitDx=0;exitDy=0;entryX=0.356;entryY=-0.011;entryDx=0;entryDy=0;entryPerimeter=0;endArrow=none;" edge="1" parent="1" source="PbMNXhJ-m64G4oOmed-O-69" target="PbMNXhJ-m64G4oOmed-O-75">
          <mxGeometry relative="1" as="geometry" />
        </mxCell>
        <mxCell id="PbMNXhJ-m64G4oOmed-O-83" style="edgeStyle=orthogonalEdgeStyle;rounded=0;orthogonalLoop=1;jettySize=auto;html=1;exitX=1;exitY=0.5;exitDx=0;exitDy=0;entryX=0;entryY=0.5;entryDx=0;entryDy=0;endArrow=none;" edge="1" parent="1" source="PbMNXhJ-m64G4oOmed-O-80" target="PbMNXhJ-m64G4oOmed-O-82">
          <mxGeometry relative="1" as="geometry" />
        </mxCell>
        <mxCell id="PbMNXhJ-m64G4oOmed-O-80" value="melayani" style="rhombus;whiteSpace=wrap;html=1;" vertex="1" parent="1">
          <mxGeometry x="1950" y="400" width="80" height="80" as="geometry" />
        </mxCell>
        <mxCell id="PbMNXhJ-m64G4oOmed-O-98" style="edgeStyle=orthogonalEdgeStyle;rounded=0;orthogonalLoop=1;jettySize=auto;html=1;exitX=0.5;exitY=0;exitDx=0;exitDy=0;endArrow=none;" edge="1" parent="1" source="PbMNXhJ-m64G4oOmed-O-82" target="PbMNXhJ-m64G4oOmed-O-97">
          <mxGeometry relative="1" as="geometry" />
        </mxCell>
        <mxCell id="PbMNXhJ-m64G4oOmed-O-82" value="petugas" style="rounded=0;whiteSpace=wrap;html=1;" vertex="1" parent="1">
          <mxGeometry x="2125" y="400" width="120" height="60" as="geometry" />
        </mxCell>
        <mxCell id="PbMNXhJ-m64G4oOmed-O-91" style="edgeStyle=orthogonalEdgeStyle;rounded=0;orthogonalLoop=1;jettySize=auto;html=1;exitX=1;exitY=1;exitDx=0;exitDy=0;entryX=0;entryY=0.25;entryDx=0;entryDy=0;endArrow=none;" edge="1" parent="1" source="PbMNXhJ-m64G4oOmed-O-84" target="PbMNXhJ-m64G4oOmed-O-82">
          <mxGeometry relative="1" as="geometry" />
        </mxCell>
        <mxCell id="PbMNXhJ-m64G4oOmed-O-84" value="nama" style="ellipse;whiteSpace=wrap;html=1;" vertex="1" parent="1">
          <mxGeometry x="2010" y="330" width="90" height="60" as="geometry" />
        </mxCell>
        <mxCell id="PbMNXhJ-m64G4oOmed-O-96" style="edgeStyle=orthogonalEdgeStyle;rounded=0;orthogonalLoop=1;jettySize=auto;html=1;exitX=0;exitY=1;exitDx=0;exitDy=0;entryX=1;entryY=0.25;entryDx=0;entryDy=0;endArrow=none;" edge="1" parent="1" source="PbMNXhJ-m64G4oOmed-O-85" target="PbMNXhJ-m64G4oOmed-O-82">
          <mxGeometry relative="1" as="geometry" />
        </mxCell>
        <mxCell id="PbMNXhJ-m64G4oOmed-O-85" value="alamat" style="ellipse;whiteSpace=wrap;html=1;" vertex="1" parent="1">
          <mxGeometry x="2320" y="340" width="90" height="60" as="geometry" />
        </mxCell>
        <mxCell id="PbMNXhJ-m64G4oOmed-O-95" style="edgeStyle=orthogonalEdgeStyle;rounded=0;orthogonalLoop=1;jettySize=auto;html=1;exitX=0;exitY=0.5;exitDx=0;exitDy=0;entryX=1;entryY=0.75;entryDx=0;entryDy=0;endArrow=none;" edge="1" parent="1" source="PbMNXhJ-m64G4oOmed-O-86" target="PbMNXhJ-m64G4oOmed-O-82">
          <mxGeometry relative="1" as="geometry" />
        </mxCell>
        <mxCell id="PbMNXhJ-m64G4oOmed-O-86" value="jabatan" style="ellipse;whiteSpace=wrap;html=1;" vertex="1" parent="1">
          <mxGeometry x="2330" y="430" width="90" height="60" as="geometry" />
        </mxCell>
        <mxCell id="PbMNXhJ-m64G4oOmed-O-94" style="edgeStyle=orthogonalEdgeStyle;rounded=0;orthogonalLoop=1;jettySize=auto;html=1;exitX=0;exitY=0;exitDx=0;exitDy=0;entryX=0.75;entryY=1;entryDx=0;entryDy=0;endArrow=none;" edge="1" parent="1" source="PbMNXhJ-m64G4oOmed-O-87" target="PbMNXhJ-m64G4oOmed-O-82">
          <mxGeometry relative="1" as="geometry" />
        </mxCell>
        <mxCell id="PbMNXhJ-m64G4oOmed-O-87" value="no_telp" style="ellipse;whiteSpace=wrap;html=1;" vertex="1" parent="1">
          <mxGeometry x="2220" y="490" width="90" height="60" as="geometry" />
        </mxCell>
        <mxCell id="PbMNXhJ-m64G4oOmed-O-93" style="edgeStyle=orthogonalEdgeStyle;rounded=0;orthogonalLoop=1;jettySize=auto;html=1;exitX=0.5;exitY=0;exitDx=0;exitDy=0;entryX=0.25;entryY=1;entryDx=0;entryDy=0;endArrow=none;" edge="1" parent="1" source="PbMNXhJ-m64G4oOmed-O-88" target="PbMNXhJ-m64G4oOmed-O-82">
          <mxGeometry relative="1" as="geometry" />
        </mxCell>
        <mxCell id="PbMNXhJ-m64G4oOmed-O-88" value="email" style="ellipse;whiteSpace=wrap;html=1;" vertex="1" parent="1">
          <mxGeometry x="2120" y="540" width="90" height="60" as="geometry" />
        </mxCell>
        <mxCell id="PbMNXhJ-m64G4oOmed-O-92" style="edgeStyle=orthogonalEdgeStyle;rounded=0;orthogonalLoop=1;jettySize=auto;html=1;exitX=0.5;exitY=0;exitDx=0;exitDy=0;entryX=0;entryY=0.75;entryDx=0;entryDy=0;endArrow=none;" edge="1" parent="1" source="PbMNXhJ-m64G4oOmed-O-89" target="PbMNXhJ-m64G4oOmed-O-82">
          <mxGeometry relative="1" as="geometry" />
        </mxCell>
        <mxCell id="PbMNXhJ-m64G4oOmed-O-89" value="id" style="ellipse;whiteSpace=wrap;html=1;" vertex="1" parent="1">
          <mxGeometry x="2030" y="520" width="90" height="60" as="geometry" />
        </mxCell>
        <mxCell id="PbMNXhJ-m64G4oOmed-O-105" style="edgeStyle=orthogonalEdgeStyle;rounded=0;orthogonalLoop=1;jettySize=auto;html=1;exitX=0;exitY=0.5;exitDx=0;exitDy=0;entryX=0.5;entryY=1;entryDx=0;entryDy=0;endArrow=none;" edge="1" parent="1" source="PbMNXhJ-m64G4oOmed-O-97" target="PbMNXhJ-m64G4oOmed-O-99">
          <mxGeometry relative="1" as="geometry" />
        </mxCell>
        <mxCell id="PbMNXhJ-m64G4oOmed-O-106" style="edgeStyle=orthogonalEdgeStyle;rounded=0;orthogonalLoop=1;jettySize=auto;html=1;exitX=0;exitY=0;exitDx=0;exitDy=0;entryX=0.5;entryY=1;entryDx=0;entryDy=0;endArrow=none;" edge="1" parent="1" source="PbMNXhJ-m64G4oOmed-O-97" target="PbMNXhJ-m64G4oOmed-O-100">
          <mxGeometry relative="1" as="geometry" />
        </mxCell>
        <mxCell id="PbMNXhJ-m64G4oOmed-O-107" style="edgeStyle=orthogonalEdgeStyle;rounded=0;orthogonalLoop=1;jettySize=auto;html=1;exitX=0.25;exitY=0;exitDx=0;exitDy=0;entryX=0;entryY=1;entryDx=0;entryDy=0;endArrow=none;" edge="1" parent="1" source="PbMNXhJ-m64G4oOmed-O-97" target="PbMNXhJ-m64G4oOmed-O-101">
          <mxGeometry relative="1" as="geometry" />
        </mxCell>
        <mxCell id="PbMNXhJ-m64G4oOmed-O-109" style="edgeStyle=orthogonalEdgeStyle;rounded=0;orthogonalLoop=1;jettySize=auto;html=1;exitX=1;exitY=0.25;exitDx=0;exitDy=0;endArrow=none;" edge="1" parent="1" source="PbMNXhJ-m64G4oOmed-O-97" target="PbMNXhJ-m64G4oOmed-O-102">
          <mxGeometry relative="1" as="geometry" />
        </mxCell>
        <mxCell id="PbMNXhJ-m64G4oOmed-O-97" value="loket" style="rounded=0;whiteSpace=wrap;html=1;" vertex="1" parent="1">
          <mxGeometry x="2160" y="210" width="120" height="60" as="geometry" />
        </mxCell>
        <mxCell id="PbMNXhJ-m64G4oOmed-O-99" value="jam_tutup" style="ellipse;whiteSpace=wrap;html=1;" vertex="1" parent="1">
          <mxGeometry x="2050" y="160" width="90" height="60" as="geometry" />
        </mxCell>
        <mxCell id="PbMNXhJ-m64G4oOmed-O-100" value="jam_buka" style="ellipse;whiteSpace=wrap;html=1;" vertex="1" parent="1">
          <mxGeometry x="2110" y="90" width="90" height="60" as="geometry" />
        </mxCell>
        <mxCell id="PbMNXhJ-m64G4oOmed-O-101" value="id_loket" style="ellipse;whiteSpace=wrap;html=1;" vertex="1" parent="1">
          <mxGeometry x="2220" y="90" width="90" height="60" as="geometry" />
        </mxCell>
        <mxCell id="PbMNXhJ-m64G4oOmed-O-102" value="nama_loket" style="ellipse;whiteSpace=wrap;html=1;" vertex="1" parent="1">
          <mxGeometry x="2310" y="220" width="90" height="60" as="geometry" />
        </mxCell>
        <mxCell id="PbMNXhJ-m64G4oOmed-O-103" value="status_loket" style="ellipse;whiteSpace=wrap;html=1;" vertex="1" parent="1">
          <mxGeometry x="2310" y="130" width="90" height="60" as="geometry" />
        </mxCell>
        <mxCell id="PbMNXhJ-m64G4oOmed-O-108" style="edgeStyle=orthogonalEdgeStyle;rounded=0;orthogonalLoop=1;jettySize=auto;html=1;exitX=0.75;exitY=0;exitDx=0;exitDy=0;entryX=0;entryY=0.667;entryDx=0;entryDy=0;entryPerimeter=0;endArrow=none;" edge="1" parent="1" source="PbMNXhJ-m64G4oOmed-O-97" target="PbMNXhJ-m64G4oOmed-O-103">
          <mxGeometry relative="1" as="geometry" />
        </mxCell>
        <mxCell id="PbMNXhJ-m64G4oOmed-O-112" value="M" style="text;html=1;align=center;verticalAlign=middle;resizable=0;points=[];autosize=1;strokeColor=none;fillColor=none;" vertex="1" parent="1">
          <mxGeometry x="845" y="368" width="30" height="30" as="geometry" />
        </mxCell>
        <mxCell id="PbMNXhJ-m64G4oOmed-O-113" value="M" style="text;html=1;align=center;verticalAlign=middle;resizable=0;points=[];autosize=1;strokeColor=none;fillColor=none;" vertex="1" parent="1">
          <mxGeometry x="925" y="388" width="30" height="30" as="geometry" />
        </mxCell>
        <mxCell id="PbMNXhJ-m64G4oOmed-O-114" value="1" style="text;html=1;align=center;verticalAlign=middle;resizable=0;points=[];autosize=1;strokeColor=none;fillColor=none;" vertex="1" parent="1">
          <mxGeometry x="895" y="128" width="30" height="30" as="geometry" />
        </mxCell>
        <mxCell id="PbMNXhJ-m64G4oOmed-O-115" value="1" style="text;html=1;align=center;verticalAlign=middle;resizable=0;points=[];autosize=1;strokeColor=none;fillColor=none;" vertex="1" parent="1">
          <mxGeometry x="1005" y="388" width="30" height="30" as="geometry" />
        </mxCell>
        <mxCell id="PbMNXhJ-m64G4oOmed-O-116" value="M" style="text;html=1;align=center;verticalAlign=middle;resizable=0;points=[];autosize=1;strokeColor=none;fillColor=none;" vertex="1" parent="1">
          <mxGeometry x="1125" y="188" width="30" height="30" as="geometry" />
        </mxCell>
        <mxCell id="PbMNXhJ-m64G4oOmed-O-117" value="1" style="text;html=1;align=center;verticalAlign=middle;resizable=0;points=[];autosize=1;strokeColor=none;fillColor=none;" vertex="1" parent="1">
          <mxGeometry x="1195" y="138" width="30" height="30" as="geometry" />
        </mxCell>
        <mxCell id="PbMNXhJ-m64G4oOmed-O-118" value="1" style="text;html=1;align=center;verticalAlign=middle;resizable=0;points=[];autosize=1;strokeColor=none;fillColor=none;" vertex="1" parent="1">
          <mxGeometry x="1195" y="218" width="30" height="30" as="geometry" />
        </mxCell>
        <mxCell id="PbMNXhJ-m64G4oOmed-O-119" value="M" style="text;html=1;align=center;verticalAlign=middle;resizable=0;points=[];autosize=1;strokeColor=none;fillColor=none;" vertex="1" parent="1">
          <mxGeometry x="1245" y="448" width="30" height="30" as="geometry" />
        </mxCell>
        <mxCell id="PbMNXhJ-m64G4oOmed-O-123" style="edgeStyle=orthogonalEdgeStyle;rounded=0;orthogonalLoop=1;jettySize=auto;html=1;exitX=1;exitY=0.5;exitDx=0;exitDy=0;entryX=0;entryY=0.5;entryDx=0;entryDy=0;endArrow=none;" edge="1" parent="1" source="PbMNXhJ-m64G4oOmed-O-120" target="LCyz_QsbxFItUiyzZBKg-30">
          <mxGeometry relative="1" as="geometry" />
        </mxCell>
        <mxCell id="PbMNXhJ-m64G4oOmed-O-120" value="memiliki" style="rhombus;whiteSpace=wrap;html=1;" vertex="1" parent="1">
          <mxGeometry x="1115" y="318" width="80" height="80" as="geometry" />
        </mxCell>
        <mxCell id="PbMNXhJ-m64G4oOmed-O-125" value="M" style="text;html=1;align=center;verticalAlign=middle;resizable=0;points=[];autosize=1;strokeColor=none;fillColor=none;" vertex="1" parent="1">
          <mxGeometry x="1305" y="388" width="30" height="30" as="geometry" />
        </mxCell>
        <mxCell id="PbMNXhJ-m64G4oOmed-O-126" value="1" style="text;html=1;align=center;verticalAlign=middle;resizable=0;points=[];autosize=1;strokeColor=none;fillColor=none;" vertex="1" parent="1">
          <mxGeometry x="1415" y="428" width="30" height="30" as="geometry" />
        </mxCell>
        <mxCell id="PbMNXhJ-m64G4oOmed-O-127" value="M" style="text;html=1;align=center;verticalAlign=middle;resizable=0;points=[];autosize=1;strokeColor=none;fillColor=none;" vertex="1" parent="1">
          <mxGeometry x="1225" y="-2" width="30" height="30" as="geometry" />
        </mxCell>
        <mxCell id="PbMNXhJ-m64G4oOmed-O-128" value="1" style="text;html=1;align=center;verticalAlign=middle;resizable=0;points=[];autosize=1;strokeColor=none;fillColor=none;" vertex="1" parent="1">
          <mxGeometry x="1315" y="-52" width="30" height="30" as="geometry" />
        </mxCell>
        <mxCell id="PbMNXhJ-m64G4oOmed-O-129" value="1" style="text;html=1;align=center;verticalAlign=middle;resizable=0;points=[];autosize=1;strokeColor=none;fillColor=none;" vertex="1" parent="1">
          <mxGeometry x="1565" y="-52" width="30" height="30" as="geometry" />
        </mxCell>
        <mxCell id="PbMNXhJ-m64G4oOmed-O-130" value="M" style="text;html=1;align=center;verticalAlign=middle;resizable=0;points=[];autosize=1;strokeColor=none;fillColor=none;" vertex="1" parent="1">
          <mxGeometry x="1615" y="-2" width="30" height="30" as="geometry" />
        </mxCell>
        <mxCell id="PbMNXhJ-m64G4oOmed-O-131" value="1" style="text;html=1;align=center;verticalAlign=middle;resizable=0;points=[];autosize=1;strokeColor=none;fillColor=none;" vertex="1" parent="1">
          <mxGeometry x="1745" y="178" width="30" height="30" as="geometry" />
        </mxCell>
        <mxCell id="PbMNXhJ-m64G4oOmed-O-132" value="M" style="text;html=1;align=center;verticalAlign=middle;resizable=0;points=[];autosize=1;strokeColor=none;fillColor=none;" vertex="1" parent="1">
          <mxGeometry x="1715" y="258" width="30" height="30" as="geometry" />
        </mxCell>
        <mxCell id="PbMNXhJ-m64G4oOmed-O-133" value="M" style="text;html=1;align=center;verticalAlign=middle;resizable=0;points=[];autosize=1;strokeColor=none;fillColor=none;" vertex="1" parent="1">
          <mxGeometry x="1745" y="258" width="30" height="30" as="geometry" />
        </mxCell>
        <mxCell id="PbMNXhJ-m64G4oOmed-O-134" value="M" style="text;html=1;align=center;verticalAlign=middle;resizable=0;points=[];autosize=1;strokeColor=none;fillColor=none;" vertex="1" parent="1">
          <mxGeometry x="1775" y="258" width="30" height="30" as="geometry" />
        </mxCell>
        <mxCell id="PbMNXhJ-m64G4oOmed-O-135" value="1" style="text;html=1;align=center;verticalAlign=middle;resizable=0;points=[];autosize=1;strokeColor=none;fillColor=none;" vertex="1" parent="1">
          <mxGeometry x="1745" y="548" width="30" height="30" as="geometry" />
        </mxCell>
        <mxCell id="PbMNXhJ-m64G4oOmed-O-136" value="1" style="text;html=1;align=center;verticalAlign=middle;resizable=0;points=[];autosize=1;strokeColor=none;fillColor=none;" vertex="1" parent="1">
          <mxGeometry x="2085" y="408" width="30" height="30" as="geometry" />
        </mxCell>
        <mxCell id="PbMNXhJ-m64G4oOmed-O-137" value="M" style="text;html=1;align=center;verticalAlign=middle;resizable=0;points=[];autosize=1;strokeColor=none;fillColor=none;" vertex="1" parent="1">
          <mxGeometry x="2185" y="368" width="30" height="30" as="geometry" />
        </mxCell>
        <mxCell id="PbMNXhJ-m64G4oOmed-O-138" value="1" style="text;html=1;align=center;verticalAlign=middle;resizable=0;points=[];autosize=1;strokeColor=none;fillColor=none;" vertex="1" parent="1">
          <mxGeometry x="2215" y="268" width="30" height="30" as="geometry" />
        </mxCell>
      </root>
    </mxGraphModel>
  </diagram>
  <diagram id="MGBkxx-ZQQRcRXJ1tVqo" name="Page-2">
    <mxGraphModel dx="1120" dy="470" grid="1" gridSize="10" guides="1" tooltips="1" connect="1" arrows="1" fold="1" page="1" pageScale="1" pageWidth="850" pageHeight="1100" math="0" shadow="0">
      <root>
        <mxCell id="0" />
        <mxCell id="1" parent="0" />
      </root>
    </mxGraphModel>
  </diagram>
  <diagram id="hOHhaJMEhFoImYegfOVQ" name="Page-3">
    <mxGraphModel dx="3200" dy="2443" grid="1" gridSize="10" guides="1" tooltips="1" connect="1" arrows="1" fold="1" page="1" pageScale="1" pageWidth="850" pageHeight="1100" math="0" shadow="0">
      <root>
        <mxCell id="0" />
        <mxCell id="1" parent="0" />
        <mxCell id="zhwauklp3hkX9SXXrlXl-27" value="kursi" style="swimlane;fontStyle=0;childLayout=stackLayout;horizontal=1;startSize=26;horizontalStack=0;resizeParent=1;resizeParentMax=0;resizeLast=0;collapsible=1;marginBottom=0;align=center;fontSize=14;" vertex="1" parent="1">
          <mxGeometry x="265" y="150" width="160" height="146" as="geometry" />
        </mxCell>
        <mxCell id="zhwauklp3hkX9SXXrlXl-28" value="id" style="text;strokeColor=none;fillColor=none;spacingLeft=4;spacingRight=4;overflow=hidden;rotatable=0;points=[[0,0.5],[1,0.5]];portConstraint=eastwest;fontSize=12;whiteSpace=wrap;html=1;" vertex="1" parent="zhwauklp3hkX9SXXrlXl-27">
          <mxGeometry y="26" width="160" height="30" as="geometry" />
        </mxCell>
        <mxCell id="zhwauklp3hkX9SXXrlXl-29" value="id_ruang" style="text;strokeColor=none;fillColor=none;spacingLeft=4;spacingRight=4;overflow=hidden;rotatable=0;points=[[0,0.5],[1,0.5]];portConstraint=eastwest;fontSize=12;whiteSpace=wrap;html=1;" vertex="1" parent="zhwauklp3hkX9SXXrlXl-27">
          <mxGeometry y="56" width="160" height="30" as="geometry" />
        </mxCell>
        <mxCell id="zhwauklp3hkX9SXXrlXl-30" value="no_kursi" style="text;strokeColor=none;fillColor=none;spacingLeft=4;spacingRight=4;overflow=hidden;rotatable=0;points=[[0,0.5],[1,0.5]];portConstraint=eastwest;fontSize=12;whiteSpace=wrap;html=1;" vertex="1" parent="zhwauklp3hkX9SXXrlXl-27">
          <mxGeometry y="86" width="160" height="30" as="geometry" />
        </mxCell>
        <mxCell id="zhwauklp3hkX9SXXrlXl-31" value="status" style="text;strokeColor=none;fillColor=none;spacingLeft=4;spacingRight=4;overflow=hidden;rotatable=0;points=[[0,0.5],[1,0.5]];portConstraint=eastwest;fontSize=12;whiteSpace=wrap;html=1;" vertex="1" parent="zhwauklp3hkX9SXXrlXl-27">
          <mxGeometry y="116" width="160" height="30" as="geometry" />
        </mxCell>
        <mxCell id="zhwauklp3hkX9SXXrlXl-32" value="tiket" style="swimlane;fontStyle=0;childLayout=stackLayout;horizontal=1;startSize=26;horizontalStack=0;resizeParent=1;resizeParentMax=0;resizeLast=0;collapsible=1;marginBottom=0;align=center;fontSize=14;" vertex="1" parent="1">
          <mxGeometry x="750" y="510" width="160" height="176" as="geometry" />
        </mxCell>
        <mxCell id="zhwauklp3hkX9SXXrlXl-33" value="id" style="text;strokeColor=none;fillColor=none;spacingLeft=4;spacingRight=4;overflow=hidden;rotatable=0;points=[[0,0.5],[1,0.5]];portConstraint=eastwest;fontSize=12;whiteSpace=wrap;html=1;" vertex="1" parent="zhwauklp3hkX9SXXrlXl-32">
          <mxGeometry y="26" width="160" height="30" as="geometry" />
        </mxCell>
        <mxCell id="zhwauklp3hkX9SXXrlXl-34" value="judul_film" style="text;strokeColor=none;fillColor=none;spacingLeft=4;spacingRight=4;overflow=hidden;rotatable=0;points=[[0,0.5],[1,0.5]];portConstraint=eastwest;fontSize=12;whiteSpace=wrap;html=1;" vertex="1" parent="zhwauklp3hkX9SXXrlXl-32">
          <mxGeometry y="56" width="160" height="30" as="geometry" />
        </mxCell>
        <mxCell id="zhwauklp3hkX9SXXrlXl-35" value="id_pemesanan" style="text;strokeColor=none;fillColor=none;spacingLeft=4;spacingRight=4;overflow=hidden;rotatable=0;points=[[0,0.5],[1,0.5]];portConstraint=eastwest;fontSize=12;whiteSpace=wrap;html=1;" vertex="1" parent="zhwauklp3hkX9SXXrlXl-32">
          <mxGeometry y="86" width="160" height="30" as="geometry" />
        </mxCell>
        <mxCell id="zhwauklp3hkX9SXXrlXl-37" value="id_kursi" style="text;strokeColor=none;fillColor=none;spacingLeft=4;spacingRight=4;overflow=hidden;rotatable=0;points=[[0,0.5],[1,0.5]];portConstraint=eastwest;fontSize=12;whiteSpace=wrap;html=1;" vertex="1" parent="zhwauklp3hkX9SXXrlXl-32">
          <mxGeometry y="116" width="160" height="30" as="geometry" />
        </mxCell>
        <mxCell id="zhwauklp3hkX9SXXrlXl-36" value="harga" style="text;strokeColor=none;fillColor=none;spacingLeft=4;spacingRight=4;overflow=hidden;rotatable=0;points=[[0,0.5],[1,0.5]];portConstraint=eastwest;fontSize=12;whiteSpace=wrap;html=1;" vertex="1" parent="zhwauklp3hkX9SXXrlXl-32">
          <mxGeometry y="146" width="160" height="30" as="geometry" />
        </mxCell>
        <mxCell id="zhwauklp3hkX9SXXrlXl-38" value="ruang" style="swimlane;fontStyle=0;childLayout=stackLayout;horizontal=1;startSize=26;horizontalStack=0;resizeParent=1;resizeParentMax=0;resizeLast=0;collapsible=1;marginBottom=0;align=center;fontSize=14;" vertex="1" parent="1">
          <mxGeometry x="540" y="-20" width="160" height="146" as="geometry" />
        </mxCell>
        <mxCell id="zhwauklp3hkX9SXXrlXl-39" value="id" style="text;strokeColor=none;fillColor=none;spacingLeft=4;spacingRight=4;overflow=hidden;rotatable=0;points=[[0,0.5],[1,0.5]];portConstraint=eastwest;fontSize=12;whiteSpace=wrap;html=1;" vertex="1" parent="zhwauklp3hkX9SXXrlXl-38">
          <mxGeometry y="26" width="160" height="30" as="geometry" />
        </mxCell>
        <mxCell id="zhwauklp3hkX9SXXrlXl-40" value="nama_ruang" style="text;strokeColor=none;fillColor=none;spacingLeft=4;spacingRight=4;overflow=hidden;rotatable=0;points=[[0,0.5],[1,0.5]];portConstraint=eastwest;fontSize=12;whiteSpace=wrap;html=1;" vertex="1" parent="zhwauklp3hkX9SXXrlXl-38">
          <mxGeometry y="56" width="160" height="30" as="geometry" />
        </mxCell>
        <mxCell id="zhwauklp3hkX9SXXrlXl-41" value="kapasitas" style="text;strokeColor=none;fillColor=none;spacingLeft=4;spacingRight=4;overflow=hidden;rotatable=0;points=[[0,0.5],[1,0.5]];portConstraint=eastwest;fontSize=12;whiteSpace=wrap;html=1;" vertex="1" parent="zhwauklp3hkX9SXXrlXl-38">
          <mxGeometry y="86" width="160" height="30" as="geometry" />
        </mxCell>
        <mxCell id="zhwauklp3hkX9SXXrlXl-42" value="&lt;div&gt;lokasi_id&lt;/div&gt;" style="text;strokeColor=none;fillColor=none;spacingLeft=4;spacingRight=4;overflow=hidden;rotatable=0;points=[[0,0.5],[1,0.5]];portConstraint=eastwest;fontSize=12;whiteSpace=wrap;html=1;" vertex="1" parent="zhwauklp3hkX9SXXrlXl-38">
          <mxGeometry y="116" width="160" height="30" as="geometry" />
        </mxCell>
        <mxCell id="zhwauklp3hkX9SXXrlXl-43" value="lokasi_bioskop" style="swimlane;fontStyle=0;childLayout=stackLayout;horizontal=1;startSize=26;horizontalStack=0;resizeParent=1;resizeParentMax=0;resizeLast=0;collapsible=1;marginBottom=0;align=center;fontSize=14;" vertex="1" parent="1">
          <mxGeometry x="310" y="410" width="160" height="116" as="geometry" />
        </mxCell>
        <mxCell id="zhwauklp3hkX9SXXrlXl-44" value="id" style="text;strokeColor=none;fillColor=none;spacingLeft=4;spacingRight=4;overflow=hidden;rotatable=0;points=[[0,0.5],[1,0.5]];portConstraint=eastwest;fontSize=12;whiteSpace=wrap;html=1;" vertex="1" parent="zhwauklp3hkX9SXXrlXl-43">
          <mxGeometry y="26" width="160" height="30" as="geometry" />
        </mxCell>
        <mxCell id="zhwauklp3hkX9SXXrlXl-45" value="nama_lokas" style="text;strokeColor=none;fillColor=none;spacingLeft=4;spacingRight=4;overflow=hidden;rotatable=0;points=[[0,0.5],[1,0.5]];portConstraint=eastwest;fontSize=12;whiteSpace=wrap;html=1;" vertex="1" parent="zhwauklp3hkX9SXXrlXl-43">
          <mxGeometry y="56" width="160" height="30" as="geometry" />
        </mxCell>
        <mxCell id="zhwauklp3hkX9SXXrlXl-46" value="alamat" style="text;strokeColor=none;fillColor=none;spacingLeft=4;spacingRight=4;overflow=hidden;rotatable=0;points=[[0,0.5],[1,0.5]];portConstraint=eastwest;fontSize=12;whiteSpace=wrap;html=1;" vertex="1" parent="zhwauklp3hkX9SXXrlXl-43">
          <mxGeometry y="86" width="160" height="30" as="geometry" />
        </mxCell>
        <mxCell id="zhwauklp3hkX9SXXrlXl-48" value="pemesanan" style="swimlane;fontStyle=0;childLayout=stackLayout;horizontal=1;startSize=26;horizontalStack=0;resizeParent=1;resizeParentMax=0;resizeLast=0;collapsible=1;marginBottom=0;align=center;fontSize=14;" vertex="1" parent="1">
          <mxGeometry x="780" y="-190" width="160" height="326" as="geometry" />
        </mxCell>
        <mxCell id="zhwauklp3hkX9SXXrlXl-49" value="id" style="text;strokeColor=none;fillColor=none;spacingLeft=4;spacingRight=4;overflow=hidden;rotatable=0;points=[[0,0.5],[1,0.5]];portConstraint=eastwest;fontSize=12;whiteSpace=wrap;html=1;" vertex="1" parent="zhwauklp3hkX9SXXrlXl-48">
          <mxGeometry y="26" width="160" height="30" as="geometry" />
        </mxCell>
        <mxCell id="zhwauklp3hkX9SXXrlXl-50" value="id_petugas" style="text;strokeColor=none;fillColor=none;spacingLeft=4;spacingRight=4;overflow=hidden;rotatable=0;points=[[0,0.5],[1,0.5]];portConstraint=eastwest;fontSize=12;whiteSpace=wrap;html=1;" vertex="1" parent="zhwauklp3hkX9SXXrlXl-48">
          <mxGeometry y="56" width="160" height="30" as="geometry" />
        </mxCell>
        <mxCell id="zhwauklp3hkX9SXXrlXl-51" value="id_pengunjung" style="text;strokeColor=none;fillColor=none;spacingLeft=4;spacingRight=4;overflow=hidden;rotatable=0;points=[[0,0.5],[1,0.5]];portConstraint=eastwest;fontSize=12;whiteSpace=wrap;html=1;" vertex="1" parent="zhwauklp3hkX9SXXrlXl-48">
          <mxGeometry y="86" width="160" height="30" as="geometry" />
        </mxCell>
        <mxCell id="zhwauklp3hkX9SXXrlXl-52" value="id_jadwal" style="text;strokeColor=none;fillColor=none;spacingLeft=4;spacingRight=4;overflow=hidden;rotatable=0;points=[[0,0.5],[1,0.5]];portConstraint=eastwest;fontSize=12;whiteSpace=wrap;html=1;" vertex="1" parent="zhwauklp3hkX9SXXrlXl-48">
          <mxGeometry y="116" width="160" height="30" as="geometry" />
        </mxCell>
        <mxCell id="zhwauklp3hkX9SXXrlXl-56" value="tanggal" style="text;strokeColor=none;fillColor=none;spacingLeft=4;spacingRight=4;overflow=hidden;rotatable=0;points=[[0,0.5],[1,0.5]];portConstraint=eastwest;fontSize=12;whiteSpace=wrap;html=1;" vertex="1" parent="zhwauklp3hkX9SXXrlXl-48">
          <mxGeometry y="146" width="160" height="30" as="geometry" />
        </mxCell>
        <mxCell id="zhwauklp3hkX9SXXrlXl-55" value="waktu" style="text;strokeColor=none;fillColor=none;spacingLeft=4;spacingRight=4;overflow=hidden;rotatable=0;points=[[0,0.5],[1,0.5]];portConstraint=eastwest;fontSize=12;whiteSpace=wrap;html=1;" vertex="1" parent="zhwauklp3hkX9SXXrlXl-48">
          <mxGeometry y="176" width="160" height="30" as="geometry" />
        </mxCell>
        <mxCell id="zhwauklp3hkX9SXXrlXl-54" value="jumlah_tiket" style="text;strokeColor=none;fillColor=none;spacingLeft=4;spacingRight=4;overflow=hidden;rotatable=0;points=[[0,0.5],[1,0.5]];portConstraint=eastwest;fontSize=12;whiteSpace=wrap;html=1;" vertex="1" parent="zhwauklp3hkX9SXXrlXl-48">
          <mxGeometry y="206" width="160" height="30" as="geometry" />
        </mxCell>
        <mxCell id="zhwauklp3hkX9SXXrlXl-57" value="total_harga" style="text;strokeColor=none;fillColor=none;spacingLeft=4;spacingRight=4;overflow=hidden;rotatable=0;points=[[0,0.5],[1,0.5]];portConstraint=eastwest;fontSize=12;whiteSpace=wrap;html=1;" vertex="1" parent="zhwauklp3hkX9SXXrlXl-48">
          <mxGeometry y="236" width="160" height="30" as="geometry" />
        </mxCell>
        <mxCell id="zhwauklp3hkX9SXXrlXl-58" value="status_pembayaran" style="text;strokeColor=none;fillColor=none;spacingLeft=4;spacingRight=4;overflow=hidden;rotatable=0;points=[[0,0.5],[1,0.5]];portConstraint=eastwest;fontSize=12;whiteSpace=wrap;html=1;" vertex="1" parent="zhwauklp3hkX9SXXrlXl-48">
          <mxGeometry y="266" width="160" height="30" as="geometry" />
        </mxCell>
        <mxCell id="zhwauklp3hkX9SXXrlXl-53" value="metode_pembayaran" style="text;strokeColor=none;fillColor=none;spacingLeft=4;spacingRight=4;overflow=hidden;rotatable=0;points=[[0,0.5],[1,0.5]];portConstraint=eastwest;fontSize=12;whiteSpace=wrap;html=1;" vertex="1" parent="zhwauklp3hkX9SXXrlXl-48">
          <mxGeometry y="296" width="160" height="30" as="geometry" />
        </mxCell>
        <mxCell id="zhwauklp3hkX9SXXrlXl-59" value="jadwal" style="swimlane;fontStyle=0;childLayout=stackLayout;horizontal=1;startSize=26;horizontalStack=0;resizeParent=1;resizeParentMax=0;resizeLast=0;collapsible=1;marginBottom=0;align=center;fontSize=14;" vertex="1" parent="1">
          <mxGeometry x="790" y="194" width="160" height="176" as="geometry" />
        </mxCell>
        <mxCell id="zhwauklp3hkX9SXXrlXl-60" value="id" style="text;strokeColor=none;fillColor=none;spacingLeft=4;spacingRight=4;overflow=hidden;rotatable=0;points=[[0,0.5],[1,0.5]];portConstraint=eastwest;fontSize=12;whiteSpace=wrap;html=1;" vertex="1" parent="zhwauklp3hkX9SXXrlXl-59">
          <mxGeometry y="26" width="160" height="30" as="geometry" />
        </mxCell>
        <mxCell id="zhwauklp3hkX9SXXrlXl-61" value="id_film" style="text;strokeColor=none;fillColor=none;spacingLeft=4;spacingRight=4;overflow=hidden;rotatable=0;points=[[0,0.5],[1,0.5]];portConstraint=eastwest;fontSize=12;whiteSpace=wrap;html=1;" vertex="1" parent="zhwauklp3hkX9SXXrlXl-59">
          <mxGeometry y="56" width="160" height="30" as="geometry" />
        </mxCell>
        <mxCell id="zhwauklp3hkX9SXXrlXl-62" value="id_ruang" style="text;strokeColor=none;fillColor=none;spacingLeft=4;spacingRight=4;overflow=hidden;rotatable=0;points=[[0,0.5],[1,0.5]];portConstraint=eastwest;fontSize=12;whiteSpace=wrap;html=1;" vertex="1" parent="zhwauklp3hkX9SXXrlXl-59">
          <mxGeometry y="86" width="160" height="30" as="geometry" />
        </mxCell>
        <mxCell id="zhwauklp3hkX9SXXrlXl-63" value="tanggal" style="text;strokeColor=none;fillColor=none;spacingLeft=4;spacingRight=4;overflow=hidden;rotatable=0;points=[[0,0.5],[1,0.5]];portConstraint=eastwest;fontSize=12;whiteSpace=wrap;html=1;" vertex="1" parent="zhwauklp3hkX9SXXrlXl-59">
          <mxGeometry y="116" width="160" height="30" as="geometry" />
        </mxCell>
        <mxCell id="zhwauklp3hkX9SXXrlXl-64" value="sesi" style="text;strokeColor=none;fillColor=none;spacingLeft=4;spacingRight=4;overflow=hidden;rotatable=0;points=[[0,0.5],[1,0.5]];portConstraint=eastwest;fontSize=12;whiteSpace=wrap;html=1;" vertex="1" parent="zhwauklp3hkX9SXXrlXl-59">
          <mxGeometry y="146" width="160" height="30" as="geometry" />
        </mxCell>
        <mxCell id="zhwauklp3hkX9SXXrlXl-65" value="film" style="swimlane;fontStyle=0;childLayout=stackLayout;horizontal=1;startSize=26;horizontalStack=0;resizeParent=1;resizeParentMax=0;resizeLast=0;collapsible=1;marginBottom=0;align=center;fontSize=14;" vertex="1" parent="1">
          <mxGeometry x="1090" y="390" width="160" height="266" as="geometry" />
        </mxCell>
        <mxCell id="zhwauklp3hkX9SXXrlXl-66" value="id" style="text;strokeColor=none;fillColor=none;spacingLeft=4;spacingRight=4;overflow=hidden;rotatable=0;points=[[0,0.5],[1,0.5]];portConstraint=eastwest;fontSize=12;whiteSpace=wrap;html=1;" vertex="1" parent="zhwauklp3hkX9SXXrlXl-65">
          <mxGeometry y="26" width="160" height="30" as="geometry" />
        </mxCell>
        <mxCell id="zhwauklp3hkX9SXXrlXl-67" value="judul" style="text;strokeColor=none;fillColor=none;spacingLeft=4;spacingRight=4;overflow=hidden;rotatable=0;points=[[0,0.5],[1,0.5]];portConstraint=eastwest;fontSize=12;whiteSpace=wrap;html=1;" vertex="1" parent="zhwauklp3hkX9SXXrlXl-65">
          <mxGeometry y="56" width="160" height="30" as="geometry" />
        </mxCell>
        <mxCell id="zhwauklp3hkX9SXXrlXl-68" value="tahun" style="text;strokeColor=none;fillColor=none;spacingLeft=4;spacingRight=4;overflow=hidden;rotatable=0;points=[[0,0.5],[1,0.5]];portConstraint=eastwest;fontSize=12;whiteSpace=wrap;html=1;" vertex="1" parent="zhwauklp3hkX9SXXrlXl-65">
          <mxGeometry y="86" width="160" height="30" as="geometry" />
        </mxCell>
        <mxCell id="zhwauklp3hkX9SXXrlXl-69" value="durasi" style="text;strokeColor=none;fillColor=none;spacingLeft=4;spacingRight=4;overflow=hidden;rotatable=0;points=[[0,0.5],[1,0.5]];portConstraint=eastwest;fontSize=12;whiteSpace=wrap;html=1;" vertex="1" parent="zhwauklp3hkX9SXXrlXl-65">
          <mxGeometry y="116" width="160" height="30" as="geometry" />
        </mxCell>
        <mxCell id="zhwauklp3hkX9SXXrlXl-70" value="sutradara" style="text;strokeColor=none;fillColor=none;spacingLeft=4;spacingRight=4;overflow=hidden;rotatable=0;points=[[0,0.5],[1,0.5]];portConstraint=eastwest;fontSize=12;whiteSpace=wrap;html=1;" vertex="1" parent="zhwauklp3hkX9SXXrlXl-65">
          <mxGeometry y="146" width="160" height="30" as="geometry" />
        </mxCell>
        <mxCell id="zhwauklp3hkX9SXXrlXl-71" value="pemain" style="text;strokeColor=none;fillColor=none;spacingLeft=4;spacingRight=4;overflow=hidden;rotatable=0;points=[[0,0.5],[1,0.5]];portConstraint=eastwest;fontSize=12;whiteSpace=wrap;html=1;" vertex="1" parent="zhwauklp3hkX9SXXrlXl-65">
          <mxGeometry y="176" width="160" height="30" as="geometry" />
        </mxCell>
        <mxCell id="zhwauklp3hkX9SXXrlXl-72" value="sinopsis" style="text;strokeColor=none;fillColor=none;spacingLeft=4;spacingRight=4;overflow=hidden;rotatable=0;points=[[0,0.5],[1,0.5]];portConstraint=eastwest;fontSize=12;whiteSpace=wrap;html=1;" vertex="1" parent="zhwauklp3hkX9SXXrlXl-65">
          <mxGeometry y="206" width="160" height="30" as="geometry" />
        </mxCell>
        <mxCell id="zhwauklp3hkX9SXXrlXl-73" value="batasan_umur" style="text;strokeColor=none;fillColor=none;spacingLeft=4;spacingRight=4;overflow=hidden;rotatable=0;points=[[0,0.5],[1,0.5]];portConstraint=eastwest;fontSize=12;whiteSpace=wrap;html=1;" vertex="1" parent="zhwauklp3hkX9SXXrlXl-65">
          <mxGeometry y="236" width="160" height="30" as="geometry" />
        </mxCell>
        <mxCell id="zhwauklp3hkX9SXXrlXl-76" value="film_genre" style="swimlane;fontStyle=0;childLayout=stackLayout;horizontal=1;startSize=26;horizontalStack=0;resizeParent=1;resizeParentMax=0;resizeLast=0;collapsible=1;marginBottom=0;align=center;fontSize=14;" vertex="1" parent="1">
          <mxGeometry x="1330" y="370" width="160" height="116" as="geometry" />
        </mxCell>
        <mxCell id="zhwauklp3hkX9SXXrlXl-77" value="id" style="text;strokeColor=none;fillColor=none;spacingLeft=4;spacingRight=4;overflow=hidden;rotatable=0;points=[[0,0.5],[1,0.5]];portConstraint=eastwest;fontSize=12;whiteSpace=wrap;html=1;" vertex="1" parent="zhwauklp3hkX9SXXrlXl-76">
          <mxGeometry y="26" width="160" height="30" as="geometry" />
        </mxCell>
        <mxCell id="zhwauklp3hkX9SXXrlXl-78" value="id_film" style="text;strokeColor=none;fillColor=none;spacingLeft=4;spacingRight=4;overflow=hidden;rotatable=0;points=[[0,0.5],[1,0.5]];portConstraint=eastwest;fontSize=12;whiteSpace=wrap;html=1;" vertex="1" parent="zhwauklp3hkX9SXXrlXl-76">
          <mxGeometry y="56" width="160" height="30" as="geometry" />
        </mxCell>
        <mxCell id="zhwauklp3hkX9SXXrlXl-79" value="id_genre" style="text;strokeColor=none;fillColor=none;spacingLeft=4;spacingRight=4;overflow=hidden;rotatable=0;points=[[0,0.5],[1,0.5]];portConstraint=eastwest;fontSize=12;whiteSpace=wrap;html=1;" vertex="1" parent="zhwauklp3hkX9SXXrlXl-76">
          <mxGeometry y="86" width="160" height="30" as="geometry" />
        </mxCell>
        <mxCell id="zhwauklp3hkX9SXXrlXl-80" value="genre" style="swimlane;fontStyle=0;childLayout=stackLayout;horizontal=1;startSize=26;horizontalStack=0;resizeParent=1;resizeParentMax=0;resizeLast=0;collapsible=1;marginBottom=0;align=center;fontSize=14;" vertex="1" parent="1">
          <mxGeometry x="1410" y="570" width="160" height="86" as="geometry" />
        </mxCell>
        <mxCell id="zhwauklp3hkX9SXXrlXl-81" value="id" style="text;strokeColor=none;fillColor=none;spacingLeft=4;spacingRight=4;overflow=hidden;rotatable=0;points=[[0,0.5],[1,0.5]];portConstraint=eastwest;fontSize=12;whiteSpace=wrap;html=1;" vertex="1" parent="zhwauklp3hkX9SXXrlXl-80">
          <mxGeometry y="26" width="160" height="30" as="geometry" />
        </mxCell>
        <mxCell id="zhwauklp3hkX9SXXrlXl-82" value="nama_genre" style="text;strokeColor=none;fillColor=none;spacingLeft=4;spacingRight=4;overflow=hidden;rotatable=0;points=[[0,0.5],[1,0.5]];portConstraint=eastwest;fontSize=12;whiteSpace=wrap;html=1;" vertex="1" parent="zhwauklp3hkX9SXXrlXl-80">
          <mxGeometry y="56" width="160" height="30" as="geometry" />
        </mxCell>
        <mxCell id="zhwauklp3hkX9SXXrlXl-84" value="pengunjung" style="swimlane;fontStyle=0;childLayout=stackLayout;horizontal=1;startSize=26;horizontalStack=0;resizeParent=1;resizeParentMax=0;resizeLast=0;collapsible=1;marginBottom=0;align=center;fontSize=14;" vertex="1" parent="1">
          <mxGeometry x="1160" y="90" width="160" height="146" as="geometry" />
        </mxCell>
        <mxCell id="zhwauklp3hkX9SXXrlXl-85" value="id" style="text;strokeColor=none;fillColor=none;spacingLeft=4;spacingRight=4;overflow=hidden;rotatable=0;points=[[0,0.5],[1,0.5]];portConstraint=eastwest;fontSize=12;whiteSpace=wrap;html=1;" vertex="1" parent="zhwauklp3hkX9SXXrlXl-84">
          <mxGeometry y="26" width="160" height="30" as="geometry" />
        </mxCell>
        <mxCell id="zhwauklp3hkX9SXXrlXl-86" value="nama" style="text;strokeColor=none;fillColor=none;spacingLeft=4;spacingRight=4;overflow=hidden;rotatable=0;points=[[0,0.5],[1,0.5]];portConstraint=eastwest;fontSize=12;whiteSpace=wrap;html=1;" vertex="1" parent="zhwauklp3hkX9SXXrlXl-84">
          <mxGeometry y="56" width="160" height="30" as="geometry" />
        </mxCell>
        <mxCell id="zhwauklp3hkX9SXXrlXl-88" value="no_telp" style="text;strokeColor=none;fillColor=none;spacingLeft=4;spacingRight=4;overflow=hidden;rotatable=0;points=[[0,0.5],[1,0.5]];portConstraint=eastwest;fontSize=12;whiteSpace=wrap;html=1;" vertex="1" parent="zhwauklp3hkX9SXXrlXl-84">
          <mxGeometry y="86" width="160" height="30" as="geometry" />
        </mxCell>
        <mxCell id="zhwauklp3hkX9SXXrlXl-87" value="email" style="text;strokeColor=none;fillColor=none;spacingLeft=4;spacingRight=4;overflow=hidden;rotatable=0;points=[[0,0.5],[1,0.5]];portConstraint=eastwest;fontSize=12;whiteSpace=wrap;html=1;" vertex="1" parent="zhwauklp3hkX9SXXrlXl-84">
          <mxGeometry y="116" width="160" height="30" as="geometry" />
        </mxCell>
        <mxCell id="zhwauklp3hkX9SXXrlXl-89" value="pengunjung" style="swimlane;fontStyle=0;childLayout=stackLayout;horizontal=1;startSize=26;horizontalStack=0;resizeParent=1;resizeParentMax=0;resizeLast=0;collapsible=1;marginBottom=0;align=center;fontSize=14;" vertex="1" parent="1">
          <mxGeometry x="1400" y="5" width="160" height="176" as="geometry" />
        </mxCell>
        <mxCell id="zhwauklp3hkX9SXXrlXl-90" value="id" style="text;strokeColor=none;fillColor=none;spacingLeft=4;spacingRight=4;overflow=hidden;rotatable=0;points=[[0,0.5],[1,0.5]];portConstraint=eastwest;fontSize=12;whiteSpace=wrap;html=1;" vertex="1" parent="zhwauklp3hkX9SXXrlXl-89">
          <mxGeometry y="26" width="160" height="30" as="geometry" />
        </mxCell>
        <mxCell id="zhwauklp3hkX9SXXrlXl-91" value="nama_loket" style="text;strokeColor=none;fillColor=none;spacingLeft=4;spacingRight=4;overflow=hidden;rotatable=0;points=[[0,0.5],[1,0.5]];portConstraint=eastwest;fontSize=12;whiteSpace=wrap;html=1;" vertex="1" parent="zhwauklp3hkX9SXXrlXl-89">
          <mxGeometry y="56" width="160" height="30" as="geometry" />
        </mxCell>
        <mxCell id="zhwauklp3hkX9SXXrlXl-92" value="jam_buka" style="text;strokeColor=none;fillColor=none;spacingLeft=4;spacingRight=4;overflow=hidden;rotatable=0;points=[[0,0.5],[1,0.5]];portConstraint=eastwest;fontSize=12;whiteSpace=wrap;html=1;" vertex="1" parent="zhwauklp3hkX9SXXrlXl-89">
          <mxGeometry y="86" width="160" height="30" as="geometry" />
        </mxCell>
        <mxCell id="zhwauklp3hkX9SXXrlXl-94" value="jam_tutup" style="text;strokeColor=none;fillColor=none;spacingLeft=4;spacingRight=4;overflow=hidden;rotatable=0;points=[[0,0.5],[1,0.5]];portConstraint=eastwest;fontSize=12;whiteSpace=wrap;html=1;" vertex="1" parent="zhwauklp3hkX9SXXrlXl-89">
          <mxGeometry y="116" width="160" height="30" as="geometry" />
        </mxCell>
        <mxCell id="zhwauklp3hkX9SXXrlXl-93" value="status_loket" style="text;strokeColor=none;fillColor=none;spacingLeft=4;spacingRight=4;overflow=hidden;rotatable=0;points=[[0,0.5],[1,0.5]];portConstraint=eastwest;fontSize=12;whiteSpace=wrap;html=1;" vertex="1" parent="zhwauklp3hkX9SXXrlXl-89">
          <mxGeometry y="146" width="160" height="30" as="geometry" />
        </mxCell>
        <mxCell id="zhwauklp3hkX9SXXrlXl-95" value="petugas" style="swimlane;fontStyle=0;childLayout=stackLayout;horizontal=1;startSize=26;horizontalStack=0;resizeParent=1;resizeParentMax=0;resizeLast=0;collapsible=1;marginBottom=0;align=center;fontSize=14;" vertex="1" parent="1">
          <mxGeometry x="1130" y="-250" width="160" height="236" as="geometry" />
        </mxCell>
        <mxCell id="zhwauklp3hkX9SXXrlXl-96" value="id" style="text;strokeColor=none;fillColor=none;spacingLeft=4;spacingRight=4;overflow=hidden;rotatable=0;points=[[0,0.5],[1,0.5]];portConstraint=eastwest;fontSize=12;whiteSpace=wrap;html=1;" vertex="1" parent="zhwauklp3hkX9SXXrlXl-95">
          <mxGeometry y="26" width="160" height="30" as="geometry" />
        </mxCell>
        <mxCell id="zhwauklp3hkX9SXXrlXl-97" value="nama" style="text;strokeColor=none;fillColor=none;spacingLeft=4;spacingRight=4;overflow=hidden;rotatable=0;points=[[0,0.5],[1,0.5]];portConstraint=eastwest;fontSize=12;whiteSpace=wrap;html=1;" vertex="1" parent="zhwauklp3hkX9SXXrlXl-95">
          <mxGeometry y="56" width="160" height="30" as="geometry" />
        </mxCell>
        <mxCell id="zhwauklp3hkX9SXXrlXl-98" value="jabatan" style="text;strokeColor=none;fillColor=none;spacingLeft=4;spacingRight=4;overflow=hidden;rotatable=0;points=[[0,0.5],[1,0.5]];portConstraint=eastwest;fontSize=12;whiteSpace=wrap;html=1;" vertex="1" parent="zhwauklp3hkX9SXXrlXl-95">
          <mxGeometry y="86" width="160" height="30" as="geometry" />
        </mxCell>
        <mxCell id="zhwauklp3hkX9SXXrlXl-99" value="alamat" style="text;strokeColor=none;fillColor=none;spacingLeft=4;spacingRight=4;overflow=hidden;rotatable=0;points=[[0,0.5],[1,0.5]];portConstraint=eastwest;fontSize=12;whiteSpace=wrap;html=1;" vertex="1" parent="zhwauklp3hkX9SXXrlXl-95">
          <mxGeometry y="116" width="160" height="30" as="geometry" />
        </mxCell>
        <mxCell id="zhwauklp3hkX9SXXrlXl-100" value="no_telp" style="text;strokeColor=none;fillColor=none;spacingLeft=4;spacingRight=4;overflow=hidden;rotatable=0;points=[[0,0.5],[1,0.5]];portConstraint=eastwest;fontSize=12;whiteSpace=wrap;html=1;" vertex="1" parent="zhwauklp3hkX9SXXrlXl-95">
          <mxGeometry y="146" width="160" height="30" as="geometry" />
        </mxCell>
        <mxCell id="zhwauklp3hkX9SXXrlXl-101" value="email" style="text;strokeColor=none;fillColor=none;spacingLeft=4;spacingRight=4;overflow=hidden;rotatable=0;points=[[0,0.5],[1,0.5]];portConstraint=eastwest;fontSize=12;whiteSpace=wrap;html=1;" vertex="1" parent="zhwauklp3hkX9SXXrlXl-95">
          <mxGeometry y="176" width="160" height="30" as="geometry" />
        </mxCell>
        <mxCell id="zhwauklp3hkX9SXXrlXl-102" value="id_loket" style="text;strokeColor=none;fillColor=none;spacingLeft=4;spacingRight=4;overflow=hidden;rotatable=0;points=[[0,0.5],[1,0.5]];portConstraint=eastwest;fontSize=12;whiteSpace=wrap;html=1;" vertex="1" parent="zhwauklp3hkX9SXXrlXl-95">
          <mxGeometry y="206" width="160" height="30" as="geometry" />
        </mxCell>
        <mxCell id="zhwauklp3hkX9SXXrlXl-109" value="" style="edgeStyle=entityRelationEdgeStyle;fontSize=12;html=1;endArrow=ERone;endFill=1;rounded=0;" edge="1" parent="1" source="zhwauklp3hkX9SXXrlXl-28" target="zhwauklp3hkX9SXXrlXl-37">
          <mxGeometry width="100" height="100" relative="1" as="geometry">
            <mxPoint x="1110" y="320" as="sourcePoint" />
            <mxPoint x="1210" y="220" as="targetPoint" />
            <Array as="points">
              <mxPoint x="590" y="200" />
              <mxPoint x="1100" y="250" />
            </Array>
          </mxGeometry>
        </mxCell>
        <mxCell id="zhwauklp3hkX9SXXrlXl-111" value="" style="edgeStyle=entityRelationEdgeStyle;fontSize=12;html=1;endArrow=ERone;endFill=1;rounded=0;entryX=1;entryY=0.5;entryDx=0;entryDy=0;exitX=0;exitY=0.5;exitDx=0;exitDy=0;" edge="1" parent="1" source="zhwauklp3hkX9SXXrlXl-37" target="zhwauklp3hkX9SXXrlXl-28">
          <mxGeometry width="100" height="100" relative="1" as="geometry">
            <mxPoint x="530" y="190" as="sourcePoint" />
            <mxPoint x="660" y="130" as="targetPoint" />
            <Array as="points">
              <mxPoint x="590" y="231" />
              <mxPoint x="440" y="120" />
            </Array>
          </mxGeometry>
        </mxCell>
        <mxCell id="zhwauklp3hkX9SXXrlXl-112" value="" style="edgeStyle=entityRelationEdgeStyle;fontSize=12;html=1;endArrow=ERone;endFill=1;rounded=0;exitX=0.987;exitY=0.498;exitDx=0;exitDy=0;exitPerimeter=0;" edge="1" parent="1" source="zhwauklp3hkX9SXXrlXl-29" target="zhwauklp3hkX9SXXrlXl-39">
          <mxGeometry width="100" height="100" relative="1" as="geometry">
            <mxPoint x="640" y="240" as="sourcePoint" />
            <mxPoint x="740" y="140" as="targetPoint" />
          </mxGeometry>
        </mxCell>
        <mxCell id="zhwauklp3hkX9SXXrlXl-113" value="" style="edgeStyle=entityRelationEdgeStyle;fontSize=12;html=1;endArrow=ERmany;rounded=0;" edge="1" parent="1" source="zhwauklp3hkX9SXXrlXl-39" target="zhwauklp3hkX9SXXrlXl-29">
          <mxGeometry width="100" height="100" relative="1" as="geometry">
            <mxPoint x="640" y="240" as="sourcePoint" />
            <mxPoint x="740" y="140" as="targetPoint" />
          </mxGeometry>
        </mxCell>
        <mxCell id="zhwauklp3hkX9SXXrlXl-114" value="" style="edgeStyle=entityRelationEdgeStyle;fontSize=12;html=1;endArrow=ERmany;rounded=0;" edge="1" parent="1" source="zhwauklp3hkX9SXXrlXl-44" target="zhwauklp3hkX9SXXrlXl-42">
          <mxGeometry width="100" height="100" relative="1" as="geometry">
            <mxPoint x="460" y="330" as="sourcePoint" />
            <mxPoint x="640" y="200" as="targetPoint" />
          </mxGeometry>
        </mxCell>
        <mxCell id="zhwauklp3hkX9SXXrlXl-115" value="" style="edgeStyle=entityRelationEdgeStyle;fontSize=12;html=1;endArrow=ERone;endFill=1;rounded=0;exitX=0;exitY=0.5;exitDx=0;exitDy=0;" edge="1" parent="1" source="zhwauklp3hkX9SXXrlXl-42" target="zhwauklp3hkX9SXXrlXl-44">
          <mxGeometry width="100" height="100" relative="1" as="geometry">
            <mxPoint x="660" y="410" as="sourcePoint" />
            <mxPoint x="760" y="310" as="targetPoint" />
          </mxGeometry>
        </mxCell>
        <mxCell id="zhwauklp3hkX9SXXrlXl-116" value="" style="edgeStyle=entityRelationEdgeStyle;fontSize=12;html=1;endArrow=ERmany;rounded=0;" edge="1" parent="1" source="zhwauklp3hkX9SXXrlXl-39" target="zhwauklp3hkX9SXXrlXl-62">
          <mxGeometry width="100" height="100" relative="1" as="geometry">
            <mxPoint x="840" y="420" as="sourcePoint" />
            <mxPoint x="940" y="320" as="targetPoint" />
          </mxGeometry>
        </mxCell>
        <mxCell id="zhwauklp3hkX9SXXrlXl-117" value="" style="edgeStyle=entityRelationEdgeStyle;fontSize=12;html=1;endArrow=ERone;endFill=1;rounded=0;exitX=0;exitY=0.5;exitDx=0;exitDy=0;" edge="1" parent="1" source="zhwauklp3hkX9SXXrlXl-62" target="zhwauklp3hkX9SXXrlXl-39">
          <mxGeometry width="100" height="100" relative="1" as="geometry">
            <mxPoint x="840" y="420" as="sourcePoint" />
            <mxPoint x="940" y="320" as="targetPoint" />
          </mxGeometry>
        </mxCell>
        <mxCell id="zhwauklp3hkX9SXXrlXl-118" value="" style="edgeStyle=entityRelationEdgeStyle;fontSize=12;html=1;endArrow=ERone;endFill=1;rounded=0;exitX=1;exitY=0.5;exitDx=0;exitDy=0;" edge="1" parent="1" source="zhwauklp3hkX9SXXrlXl-61" target="zhwauklp3hkX9SXXrlXl-66">
          <mxGeometry width="100" height="100" relative="1" as="geometry">
            <mxPoint x="850" y="391" as="sourcePoint" />
            <mxPoint x="740" y="241" as="targetPoint" />
          </mxGeometry>
        </mxCell>
        <mxCell id="zhwauklp3hkX9SXXrlXl-119" value="" style="edgeStyle=entityRelationEdgeStyle;fontSize=12;html=1;endArrow=ERmany;rounded=0;exitX=0;exitY=0.5;exitDx=0;exitDy=0;" edge="1" parent="1" source="zhwauklp3hkX9SXXrlXl-66" target="zhwauklp3hkX9SXXrlXl-61">
          <mxGeometry width="100" height="100" relative="1" as="geometry">
            <mxPoint x="1040" y="430" as="sourcePoint" />
            <mxPoint x="1140" y="330" as="targetPoint" />
          </mxGeometry>
        </mxCell>
        <mxCell id="zhwauklp3hkX9SXXrlXl-121" value="" style="edgeStyle=entityRelationEdgeStyle;fontSize=12;html=1;endArrow=ERmany;rounded=0;" edge="1" parent="1" source="zhwauklp3hkX9SXXrlXl-60" target="zhwauklp3hkX9SXXrlXl-51">
          <mxGeometry width="100" height="100" relative="1" as="geometry">
            <mxPoint x="1110" y="390" as="sourcePoint" />
            <mxPoint x="1210" y="290" as="targetPoint" />
          </mxGeometry>
        </mxCell>
        <mxCell id="zhwauklp3hkX9SXXrlXl-122" value="" style="edgeStyle=entityRelationEdgeStyle;fontSize=12;html=1;endArrow=ERone;endFill=1;rounded=0;exitX=1;exitY=0.5;exitDx=0;exitDy=0;" edge="1" parent="1" source="zhwauklp3hkX9SXXrlXl-51" target="zhwauklp3hkX9SXXrlXl-60">
          <mxGeometry width="100" height="100" relative="1" as="geometry">
            <mxPoint x="1330" y="210" as="sourcePoint" />
            <mxPoint x="1050" y="270" as="targetPoint" />
            <Array as="points">
              <mxPoint x="1030" y="116" />
              <mxPoint x="1000" y="116" />
            </Array>
          </mxGeometry>
        </mxCell>
        <mxCell id="zhwauklp3hkX9SXXrlXl-124" value="" style="edgeStyle=entityRelationEdgeStyle;fontSize=12;html=1;endArrow=ERmany;rounded=0;" edge="1" parent="1" source="zhwauklp3hkX9SXXrlXl-85" target="zhwauklp3hkX9SXXrlXl-50">
          <mxGeometry width="100" height="100" relative="1" as="geometry">
            <mxPoint x="1140" y="40" as="sourcePoint" />
            <mxPoint x="1240" y="-60" as="targetPoint" />
          </mxGeometry>
        </mxCell>
        <mxCell id="zhwauklp3hkX9SXXrlXl-126" value="" style="edgeStyle=entityRelationEdgeStyle;fontSize=12;html=1;endArrow=ERone;endFill=1;rounded=0;entryX=0;entryY=0.5;entryDx=0;entryDy=0;exitX=1;exitY=0.5;exitDx=0;exitDy=0;" edge="1" parent="1" source="zhwauklp3hkX9SXXrlXl-50" target="zhwauklp3hkX9SXXrlXl-85">
          <mxGeometry width="100" height="100" relative="1" as="geometry">
            <mxPoint x="1130" y="100" as="sourcePoint" />
            <mxPoint x="1230" as="targetPoint" />
          </mxGeometry>
        </mxCell>
        <mxCell id="zhwauklp3hkX9SXXrlXl-127" value="" style="edgeStyle=entityRelationEdgeStyle;fontSize=12;html=1;endArrow=ERmany;rounded=0;" edge="1" parent="1" source="zhwauklp3hkX9SXXrlXl-96" target="zhwauklp3hkX9SXXrlXl-49">
          <mxGeometry width="100" height="100" relative="1" as="geometry">
            <mxPoint x="1130" as="sourcePoint" />
            <mxPoint x="1230" y="-100" as="targetPoint" />
          </mxGeometry>
        </mxCell>
        <mxCell id="zhwauklp3hkX9SXXrlXl-128" value="" style="edgeStyle=entityRelationEdgeStyle;fontSize=12;html=1;endArrow=ERone;endFill=1;rounded=0;exitX=1;exitY=0.5;exitDx=0;exitDy=0;" edge="1" parent="1" source="zhwauklp3hkX9SXXrlXl-49" target="zhwauklp3hkX9SXXrlXl-96">
          <mxGeometry width="100" height="100" relative="1" as="geometry">
            <mxPoint x="1080" y="20" as="sourcePoint" />
            <mxPoint x="1180" y="-80" as="targetPoint" />
          </mxGeometry>
        </mxCell>
        <mxCell id="zhwauklp3hkX9SXXrlXl-129" value="" style="edgeStyle=entityRelationEdgeStyle;fontSize=12;html=1;endArrow=ERmany;rounded=0;" edge="1" parent="1" source="zhwauklp3hkX9SXXrlXl-90" target="zhwauklp3hkX9SXXrlXl-102">
          <mxGeometry width="100" height="100" relative="1" as="geometry">
            <mxPoint x="1350" as="sourcePoint" />
            <mxPoint x="1410" y="-60" as="targetPoint" />
          </mxGeometry>
        </mxCell>
        <mxCell id="zhwauklp3hkX9SXXrlXl-130" value="" style="edgeStyle=entityRelationEdgeStyle;fontSize=12;html=1;endArrow=ERone;endFill=1;rounded=0;exitX=1;exitY=0.5;exitDx=0;exitDy=0;" edge="1" parent="1" source="zhwauklp3hkX9SXXrlXl-102" target="zhwauklp3hkX9SXXrlXl-90">
          <mxGeometry width="100" height="100" relative="1" as="geometry">
            <mxPoint x="1320" y="30" as="sourcePoint" />
            <mxPoint x="1420" y="-70" as="targetPoint" />
          </mxGeometry>
        </mxCell>
        <mxCell id="zhwauklp3hkX9SXXrlXl-131" value="" style="edgeStyle=entityRelationEdgeStyle;fontSize=12;html=1;endArrow=ERmany;rounded=0;entryX=1;entryY=0.5;entryDx=0;entryDy=0;" edge="1" parent="1" source="zhwauklp3hkX9SXXrlXl-77" target="zhwauklp3hkX9SXXrlXl-66">
          <mxGeometry width="100" height="100" relative="1" as="geometry">
            <mxPoint x="1460" y="500" as="sourcePoint" />
            <mxPoint x="1560" y="400" as="targetPoint" />
          </mxGeometry>
        </mxCell>
        <mxCell id="zhwauklp3hkX9SXXrlXl-132" value="" style="edgeStyle=entityRelationEdgeStyle;fontSize=12;html=1;endArrow=ERone;endFill=1;rounded=0;entryX=0;entryY=0.5;entryDx=0;entryDy=0;exitX=1;exitY=0.5;exitDx=0;exitDy=0;" edge="1" parent="1" source="zhwauklp3hkX9SXXrlXl-66" target="zhwauklp3hkX9SXXrlXl-77">
          <mxGeometry width="100" height="100" relative="1" as="geometry">
            <mxPoint x="1460" y="500" as="sourcePoint" />
            <mxPoint x="1560" y="400" as="targetPoint" />
          </mxGeometry>
        </mxCell>
        <mxCell id="zhwauklp3hkX9SXXrlXl-133" value="" style="edgeStyle=entityRelationEdgeStyle;fontSize=12;html=1;endArrow=ERmany;rounded=0;" edge="1" parent="1" source="zhwauklp3hkX9SXXrlXl-81" target="zhwauklp3hkX9SXXrlXl-79">
          <mxGeometry width="100" height="100" relative="1" as="geometry">
            <mxPoint x="1600" y="610" as="sourcePoint" />
            <mxPoint x="1560" y="520" as="targetPoint" />
          </mxGeometry>
        </mxCell>
        <mxCell id="zhwauklp3hkX9SXXrlXl-134" value="" style="edgeStyle=entityRelationEdgeStyle;fontSize=12;html=1;endArrow=ERone;endFill=1;rounded=0;" edge="1" parent="1" source="zhwauklp3hkX9SXXrlXl-79" target="zhwauklp3hkX9SXXrlXl-81">
          <mxGeometry width="100" height="100" relative="1" as="geometry">
            <mxPoint x="1460" y="620" as="sourcePoint" />
            <mxPoint x="1560" y="520" as="targetPoint" />
          </mxGeometry>
        </mxCell>
        <mxCell id="zhwauklp3hkX9SXXrlXl-135" value="" style="edgeStyle=entityRelationEdgeStyle;fontSize=12;html=1;endArrow=ERone;endFill=1;rounded=0;" edge="1" parent="1" source="zhwauklp3hkX9SXXrlXl-34" target="zhwauklp3hkX9SXXrlXl-81">
          <mxGeometry width="100" height="100" relative="1" as="geometry">
            <mxPoint x="1360" y="650" as="sourcePoint" />
            <mxPoint x="1460" y="550" as="targetPoint" />
          </mxGeometry>
        </mxCell>
        <mxCell id="zhwauklp3hkX9SXXrlXl-136" value="" style="edgeStyle=entityRelationEdgeStyle;fontSize=12;html=1;endArrow=ERmany;rounded=0;entryX=1;entryY=0.5;entryDx=0;entryDy=0;exitX=0;exitY=0.5;exitDx=0;exitDy=0;" edge="1" parent="1" source="zhwauklp3hkX9SXXrlXl-81" target="zhwauklp3hkX9SXXrlXl-34">
          <mxGeometry width="100" height="100" relative="1" as="geometry">
            <mxPoint x="1300" y="350" as="sourcePoint" />
            <mxPoint x="1400" y="250" as="targetPoint" />
            <Array as="points">
              <mxPoint x="810" y="460" />
              <mxPoint x="850" y="500" />
            </Array>
          </mxGeometry>
        </mxCell>
      </root>
    </mxGraphModel>
  </diagram>
  <diagram name="Copy of Page-3" id="s4qVqdHKWMhV7a514kg8">
    <mxGraphModel dx="2240" dy="2040" grid="1" gridSize="10" guides="1" tooltips="1" connect="1" arrows="1" fold="1" page="1" pageScale="1" pageWidth="850" pageHeight="1100" math="0" shadow="0">
      <root>
        <mxCell id="HQhreaUdOSVcPnw1zrV4-0" />
        <mxCell id="HQhreaUdOSVcPnw1zrV4-1" parent="HQhreaUdOSVcPnw1zrV4-0" />
        <mxCell id="HQhreaUdOSVcPnw1zrV4-2" value="kursi" style="swimlane;fontStyle=0;childLayout=stackLayout;horizontal=1;startSize=26;horizontalStack=0;resizeParent=1;resizeParentMax=0;resizeLast=0;collapsible=1;marginBottom=0;align=center;fontSize=14;" vertex="1" parent="HQhreaUdOSVcPnw1zrV4-1">
          <mxGeometry x="265" y="150" width="160" height="146" as="geometry" />
        </mxCell>
        <mxCell id="HQhreaUdOSVcPnw1zrV4-3" value="id" style="text;strokeColor=none;fillColor=none;spacingLeft=4;spacingRight=4;overflow=hidden;rotatable=0;points=[[0,0.5],[1,0.5]];portConstraint=eastwest;fontSize=12;whiteSpace=wrap;html=1;" vertex="1" parent="HQhreaUdOSVcPnw1zrV4-2">
          <mxGeometry y="26" width="160" height="30" as="geometry" />
        </mxCell>
        <mxCell id="HQhreaUdOSVcPnw1zrV4-4" value="id_ruang" style="text;strokeColor=none;fillColor=none;spacingLeft=4;spacingRight=4;overflow=hidden;rotatable=0;points=[[0,0.5],[1,0.5]];portConstraint=eastwest;fontSize=12;whiteSpace=wrap;html=1;" vertex="1" parent="HQhreaUdOSVcPnw1zrV4-2">
          <mxGeometry y="56" width="160" height="30" as="geometry" />
        </mxCell>
        <mxCell id="HQhreaUdOSVcPnw1zrV4-5" value="no_kursi" style="text;strokeColor=none;fillColor=none;spacingLeft=4;spacingRight=4;overflow=hidden;rotatable=0;points=[[0,0.5],[1,0.5]];portConstraint=eastwest;fontSize=12;whiteSpace=wrap;html=1;" vertex="1" parent="HQhreaUdOSVcPnw1zrV4-2">
          <mxGeometry y="86" width="160" height="30" as="geometry" />
        </mxCell>
        <mxCell id="HQhreaUdOSVcPnw1zrV4-6" value="status" style="text;strokeColor=none;fillColor=none;spacingLeft=4;spacingRight=4;overflow=hidden;rotatable=0;points=[[0,0.5],[1,0.5]];portConstraint=eastwest;fontSize=12;whiteSpace=wrap;html=1;" vertex="1" parent="HQhreaUdOSVcPnw1zrV4-2">
          <mxGeometry y="116" width="160" height="30" as="geometry" />
        </mxCell>
        <mxCell id="HQhreaUdOSVcPnw1zrV4-7" value="tiket" style="swimlane;fontStyle=0;childLayout=stackLayout;horizontal=1;startSize=26;horizontalStack=0;resizeParent=1;resizeParentMax=0;resizeLast=0;collapsible=1;marginBottom=0;align=center;fontSize=14;" vertex="1" parent="HQhreaUdOSVcPnw1zrV4-1">
          <mxGeometry x="750" y="510" width="160" height="176" as="geometry" />
        </mxCell>
        <mxCell id="HQhreaUdOSVcPnw1zrV4-8" value="id" style="text;strokeColor=none;fillColor=none;spacingLeft=4;spacingRight=4;overflow=hidden;rotatable=0;points=[[0,0.5],[1,0.5]];portConstraint=eastwest;fontSize=12;whiteSpace=wrap;html=1;" vertex="1" parent="HQhreaUdOSVcPnw1zrV4-7">
          <mxGeometry y="26" width="160" height="30" as="geometry" />
        </mxCell>
        <mxCell id="HQhreaUdOSVcPnw1zrV4-9" value="judul_film" style="text;strokeColor=none;fillColor=none;spacingLeft=4;spacingRight=4;overflow=hidden;rotatable=0;points=[[0,0.5],[1,0.5]];portConstraint=eastwest;fontSize=12;whiteSpace=wrap;html=1;" vertex="1" parent="HQhreaUdOSVcPnw1zrV4-7">
          <mxGeometry y="56" width="160" height="30" as="geometry" />
        </mxCell>
        <mxCell id="HQhreaUdOSVcPnw1zrV4-10" value="id_pemesanan" style="text;strokeColor=none;fillColor=none;spacingLeft=4;spacingRight=4;overflow=hidden;rotatable=0;points=[[0,0.5],[1,0.5]];portConstraint=eastwest;fontSize=12;whiteSpace=wrap;html=1;" vertex="1" parent="HQhreaUdOSVcPnw1zrV4-7">
          <mxGeometry y="86" width="160" height="30" as="geometry" />
        </mxCell>
        <mxCell id="HQhreaUdOSVcPnw1zrV4-11" value="id_kursi" style="text;strokeColor=none;fillColor=none;spacingLeft=4;spacingRight=4;overflow=hidden;rotatable=0;points=[[0,0.5],[1,0.5]];portConstraint=eastwest;fontSize=12;whiteSpace=wrap;html=1;" vertex="1" parent="HQhreaUdOSVcPnw1zrV4-7">
          <mxGeometry y="116" width="160" height="30" as="geometry" />
        </mxCell>
        <mxCell id="HQhreaUdOSVcPnw1zrV4-12" value="harga" style="text;strokeColor=none;fillColor=none;spacingLeft=4;spacingRight=4;overflow=hidden;rotatable=0;points=[[0,0.5],[1,0.5]];portConstraint=eastwest;fontSize=12;whiteSpace=wrap;html=1;" vertex="1" parent="HQhreaUdOSVcPnw1zrV4-7">
          <mxGeometry y="146" width="160" height="30" as="geometry" />
        </mxCell>
        <mxCell id="HQhreaUdOSVcPnw1zrV4-13" value="ruang" style="swimlane;fontStyle=0;childLayout=stackLayout;horizontal=1;startSize=26;horizontalStack=0;resizeParent=1;resizeParentMax=0;resizeLast=0;collapsible=1;marginBottom=0;align=center;fontSize=14;" vertex="1" parent="HQhreaUdOSVcPnw1zrV4-1">
          <mxGeometry x="540" y="-20" width="160" height="146" as="geometry" />
        </mxCell>
        <mxCell id="HQhreaUdOSVcPnw1zrV4-14" value="id" style="text;strokeColor=none;fillColor=none;spacingLeft=4;spacingRight=4;overflow=hidden;rotatable=0;points=[[0,0.5],[1,0.5]];portConstraint=eastwest;fontSize=12;whiteSpace=wrap;html=1;" vertex="1" parent="HQhreaUdOSVcPnw1zrV4-13">
          <mxGeometry y="26" width="160" height="30" as="geometry" />
        </mxCell>
        <mxCell id="HQhreaUdOSVcPnw1zrV4-15" value="nama_ruang" style="text;strokeColor=none;fillColor=none;spacingLeft=4;spacingRight=4;overflow=hidden;rotatable=0;points=[[0,0.5],[1,0.5]];portConstraint=eastwest;fontSize=12;whiteSpace=wrap;html=1;" vertex="1" parent="HQhreaUdOSVcPnw1zrV4-13">
          <mxGeometry y="56" width="160" height="30" as="geometry" />
        </mxCell>
        <mxCell id="HQhreaUdOSVcPnw1zrV4-16" value="kapasitas" style="text;strokeColor=none;fillColor=none;spacingLeft=4;spacingRight=4;overflow=hidden;rotatable=0;points=[[0,0.5],[1,0.5]];portConstraint=eastwest;fontSize=12;whiteSpace=wrap;html=1;" vertex="1" parent="HQhreaUdOSVcPnw1zrV4-13">
          <mxGeometry y="86" width="160" height="30" as="geometry" />
        </mxCell>
        <mxCell id="HQhreaUdOSVcPnw1zrV4-17" value="&lt;div&gt;lokasi_id&lt;/div&gt;" style="text;strokeColor=none;fillColor=none;spacingLeft=4;spacingRight=4;overflow=hidden;rotatable=0;points=[[0,0.5],[1,0.5]];portConstraint=eastwest;fontSize=12;whiteSpace=wrap;html=1;" vertex="1" parent="HQhreaUdOSVcPnw1zrV4-13">
          <mxGeometry y="116" width="160" height="30" as="geometry" />
        </mxCell>
        <mxCell id="HQhreaUdOSVcPnw1zrV4-18" value="lokasi_bioskop" style="swimlane;fontStyle=0;childLayout=stackLayout;horizontal=1;startSize=26;horizontalStack=0;resizeParent=1;resizeParentMax=0;resizeLast=0;collapsible=1;marginBottom=0;align=center;fontSize=14;" vertex="1" parent="HQhreaUdOSVcPnw1zrV4-1">
          <mxGeometry x="310" y="410" width="160" height="116" as="geometry" />
        </mxCell>
        <mxCell id="HQhreaUdOSVcPnw1zrV4-19" value="id" style="text;strokeColor=none;fillColor=none;spacingLeft=4;spacingRight=4;overflow=hidden;rotatable=0;points=[[0,0.5],[1,0.5]];portConstraint=eastwest;fontSize=12;whiteSpace=wrap;html=1;" vertex="1" parent="HQhreaUdOSVcPnw1zrV4-18">
          <mxGeometry y="26" width="160" height="30" as="geometry" />
        </mxCell>
        <mxCell id="HQhreaUdOSVcPnw1zrV4-20" value="nama_lokas" style="text;strokeColor=none;fillColor=none;spacingLeft=4;spacingRight=4;overflow=hidden;rotatable=0;points=[[0,0.5],[1,0.5]];portConstraint=eastwest;fontSize=12;whiteSpace=wrap;html=1;" vertex="1" parent="HQhreaUdOSVcPnw1zrV4-18">
          <mxGeometry y="56" width="160" height="30" as="geometry" />
        </mxCell>
        <mxCell id="HQhreaUdOSVcPnw1zrV4-21" value="alamat" style="text;strokeColor=none;fillColor=none;spacingLeft=4;spacingRight=4;overflow=hidden;rotatable=0;points=[[0,0.5],[1,0.5]];portConstraint=eastwest;fontSize=12;whiteSpace=wrap;html=1;" vertex="1" parent="HQhreaUdOSVcPnw1zrV4-18">
          <mxGeometry y="86" width="160" height="30" as="geometry" />
        </mxCell>
        <mxCell id="HQhreaUdOSVcPnw1zrV4-22" value="pemesanan" style="swimlane;fontStyle=0;childLayout=stackLayout;horizontal=1;startSize=26;horizontalStack=0;resizeParent=1;resizeParentMax=0;resizeLast=0;collapsible=1;marginBottom=0;align=center;fontSize=14;" vertex="1" parent="HQhreaUdOSVcPnw1zrV4-1">
          <mxGeometry x="780" y="-190" width="160" height="326" as="geometry" />
        </mxCell>
        <mxCell id="HQhreaUdOSVcPnw1zrV4-23" value="id" style="text;strokeColor=none;fillColor=none;spacingLeft=4;spacingRight=4;overflow=hidden;rotatable=0;points=[[0,0.5],[1,0.5]];portConstraint=eastwest;fontSize=12;whiteSpace=wrap;html=1;" vertex="1" parent="HQhreaUdOSVcPnw1zrV4-22">
          <mxGeometry y="26" width="160" height="30" as="geometry" />
        </mxCell>
        <mxCell id="HQhreaUdOSVcPnw1zrV4-24" value="id_petugas" style="text;strokeColor=none;fillColor=none;spacingLeft=4;spacingRight=4;overflow=hidden;rotatable=0;points=[[0,0.5],[1,0.5]];portConstraint=eastwest;fontSize=12;whiteSpace=wrap;html=1;" vertex="1" parent="HQhreaUdOSVcPnw1zrV4-22">
          <mxGeometry y="56" width="160" height="30" as="geometry" />
        </mxCell>
        <mxCell id="HQhreaUdOSVcPnw1zrV4-25" value="id_pengunjung" style="text;strokeColor=none;fillColor=none;spacingLeft=4;spacingRight=4;overflow=hidden;rotatable=0;points=[[0,0.5],[1,0.5]];portConstraint=eastwest;fontSize=12;whiteSpace=wrap;html=1;" vertex="1" parent="HQhreaUdOSVcPnw1zrV4-22">
          <mxGeometry y="86" width="160" height="30" as="geometry" />
        </mxCell>
        <mxCell id="HQhreaUdOSVcPnw1zrV4-26" value="id_jadwal" style="text;strokeColor=none;fillColor=none;spacingLeft=4;spacingRight=4;overflow=hidden;rotatable=0;points=[[0,0.5],[1,0.5]];portConstraint=eastwest;fontSize=12;whiteSpace=wrap;html=1;" vertex="1" parent="HQhreaUdOSVcPnw1zrV4-22">
          <mxGeometry y="116" width="160" height="30" as="geometry" />
        </mxCell>
        <mxCell id="HQhreaUdOSVcPnw1zrV4-27" value="tanggal" style="text;strokeColor=none;fillColor=none;spacingLeft=4;spacingRight=4;overflow=hidden;rotatable=0;points=[[0,0.5],[1,0.5]];portConstraint=eastwest;fontSize=12;whiteSpace=wrap;html=1;" vertex="1" parent="HQhreaUdOSVcPnw1zrV4-22">
          <mxGeometry y="146" width="160" height="30" as="geometry" />
        </mxCell>
        <mxCell id="HQhreaUdOSVcPnw1zrV4-28" value="waktu" style="text;strokeColor=none;fillColor=none;spacingLeft=4;spacingRight=4;overflow=hidden;rotatable=0;points=[[0,0.5],[1,0.5]];portConstraint=eastwest;fontSize=12;whiteSpace=wrap;html=1;" vertex="1" parent="HQhreaUdOSVcPnw1zrV4-22">
          <mxGeometry y="176" width="160" height="30" as="geometry" />
        </mxCell>
        <mxCell id="HQhreaUdOSVcPnw1zrV4-29" value="jumlah_tiket" style="text;strokeColor=none;fillColor=none;spacingLeft=4;spacingRight=4;overflow=hidden;rotatable=0;points=[[0,0.5],[1,0.5]];portConstraint=eastwest;fontSize=12;whiteSpace=wrap;html=1;" vertex="1" parent="HQhreaUdOSVcPnw1zrV4-22">
          <mxGeometry y="206" width="160" height="30" as="geometry" />
        </mxCell>
        <mxCell id="HQhreaUdOSVcPnw1zrV4-30" value="total_harga" style="text;strokeColor=none;fillColor=none;spacingLeft=4;spacingRight=4;overflow=hidden;rotatable=0;points=[[0,0.5],[1,0.5]];portConstraint=eastwest;fontSize=12;whiteSpace=wrap;html=1;" vertex="1" parent="HQhreaUdOSVcPnw1zrV4-22">
          <mxGeometry y="236" width="160" height="30" as="geometry" />
        </mxCell>
        <mxCell id="HQhreaUdOSVcPnw1zrV4-31" value="status_pembayaran" style="text;strokeColor=none;fillColor=none;spacingLeft=4;spacingRight=4;overflow=hidden;rotatable=0;points=[[0,0.5],[1,0.5]];portConstraint=eastwest;fontSize=12;whiteSpace=wrap;html=1;" vertex="1" parent="HQhreaUdOSVcPnw1zrV4-22">
          <mxGeometry y="266" width="160" height="30" as="geometry" />
        </mxCell>
        <mxCell id="HQhreaUdOSVcPnw1zrV4-32" value="metode_pembayaran" style="text;strokeColor=none;fillColor=none;spacingLeft=4;spacingRight=4;overflow=hidden;rotatable=0;points=[[0,0.5],[1,0.5]];portConstraint=eastwest;fontSize=12;whiteSpace=wrap;html=1;" vertex="1" parent="HQhreaUdOSVcPnw1zrV4-22">
          <mxGeometry y="296" width="160" height="30" as="geometry" />
        </mxCell>
        <mxCell id="HQhreaUdOSVcPnw1zrV4-33" value="jadwal" style="swimlane;fontStyle=0;childLayout=stackLayout;horizontal=1;startSize=26;horizontalStack=0;resizeParent=1;resizeParentMax=0;resizeLast=0;collapsible=1;marginBottom=0;align=center;fontSize=14;" vertex="1" parent="HQhreaUdOSVcPnw1zrV4-1">
          <mxGeometry x="790" y="194" width="160" height="176" as="geometry" />
        </mxCell>
        <mxCell id="HQhreaUdOSVcPnw1zrV4-34" value="id" style="text;strokeColor=none;fillColor=none;spacingLeft=4;spacingRight=4;overflow=hidden;rotatable=0;points=[[0,0.5],[1,0.5]];portConstraint=eastwest;fontSize=12;whiteSpace=wrap;html=1;" vertex="1" parent="HQhreaUdOSVcPnw1zrV4-33">
          <mxGeometry y="26" width="160" height="30" as="geometry" />
        </mxCell>
        <mxCell id="HQhreaUdOSVcPnw1zrV4-35" value="id_film" style="text;strokeColor=none;fillColor=none;spacingLeft=4;spacingRight=4;overflow=hidden;rotatable=0;points=[[0,0.5],[1,0.5]];portConstraint=eastwest;fontSize=12;whiteSpace=wrap;html=1;" vertex="1" parent="HQhreaUdOSVcPnw1zrV4-33">
          <mxGeometry y="56" width="160" height="30" as="geometry" />
        </mxCell>
        <mxCell id="HQhreaUdOSVcPnw1zrV4-36" value="id_ruang" style="text;strokeColor=none;fillColor=none;spacingLeft=4;spacingRight=4;overflow=hidden;rotatable=0;points=[[0,0.5],[1,0.5]];portConstraint=eastwest;fontSize=12;whiteSpace=wrap;html=1;" vertex="1" parent="HQhreaUdOSVcPnw1zrV4-33">
          <mxGeometry y="86" width="160" height="30" as="geometry" />
        </mxCell>
        <mxCell id="HQhreaUdOSVcPnw1zrV4-37" value="tanggal" style="text;strokeColor=none;fillColor=none;spacingLeft=4;spacingRight=4;overflow=hidden;rotatable=0;points=[[0,0.5],[1,0.5]];portConstraint=eastwest;fontSize=12;whiteSpace=wrap;html=1;" vertex="1" parent="HQhreaUdOSVcPnw1zrV4-33">
          <mxGeometry y="116" width="160" height="30" as="geometry" />
        </mxCell>
        <mxCell id="HQhreaUdOSVcPnw1zrV4-38" value="sesi" style="text;strokeColor=none;fillColor=none;spacingLeft=4;spacingRight=4;overflow=hidden;rotatable=0;points=[[0,0.5],[1,0.5]];portConstraint=eastwest;fontSize=12;whiteSpace=wrap;html=1;" vertex="1" parent="HQhreaUdOSVcPnw1zrV4-33">
          <mxGeometry y="146" width="160" height="30" as="geometry" />
        </mxCell>
        <mxCell id="HQhreaUdOSVcPnw1zrV4-39" value="film" style="swimlane;fontStyle=0;childLayout=stackLayout;horizontal=1;startSize=26;horizontalStack=0;resizeParent=1;resizeParentMax=0;resizeLast=0;collapsible=1;marginBottom=0;align=center;fontSize=14;" vertex="1" parent="HQhreaUdOSVcPnw1zrV4-1">
          <mxGeometry x="1090" y="390" width="160" height="266" as="geometry" />
        </mxCell>
        <mxCell id="HQhreaUdOSVcPnw1zrV4-40" value="id" style="text;strokeColor=none;fillColor=none;spacingLeft=4;spacingRight=4;overflow=hidden;rotatable=0;points=[[0,0.5],[1,0.5]];portConstraint=eastwest;fontSize=12;whiteSpace=wrap;html=1;" vertex="1" parent="HQhreaUdOSVcPnw1zrV4-39">
          <mxGeometry y="26" width="160" height="30" as="geometry" />
        </mxCell>
        <mxCell id="HQhreaUdOSVcPnw1zrV4-41" value="judul" style="text;strokeColor=none;fillColor=none;spacingLeft=4;spacingRight=4;overflow=hidden;rotatable=0;points=[[0,0.5],[1,0.5]];portConstraint=eastwest;fontSize=12;whiteSpace=wrap;html=1;" vertex="1" parent="HQhreaUdOSVcPnw1zrV4-39">
          <mxGeometry y="56" width="160" height="30" as="geometry" />
        </mxCell>
        <mxCell id="HQhreaUdOSVcPnw1zrV4-42" value="tahun" style="text;strokeColor=none;fillColor=none;spacingLeft=4;spacingRight=4;overflow=hidden;rotatable=0;points=[[0,0.5],[1,0.5]];portConstraint=eastwest;fontSize=12;whiteSpace=wrap;html=1;" vertex="1" parent="HQhreaUdOSVcPnw1zrV4-39">
          <mxGeometry y="86" width="160" height="30" as="geometry" />
        </mxCell>
        <mxCell id="HQhreaUdOSVcPnw1zrV4-43" value="durasi" style="text;strokeColor=none;fillColor=none;spacingLeft=4;spacingRight=4;overflow=hidden;rotatable=0;points=[[0,0.5],[1,0.5]];portConstraint=eastwest;fontSize=12;whiteSpace=wrap;html=1;" vertex="1" parent="HQhreaUdOSVcPnw1zrV4-39">
          <mxGeometry y="116" width="160" height="30" as="geometry" />
        </mxCell>
        <mxCell id="HQhreaUdOSVcPnw1zrV4-44" value="sutradara" style="text;strokeColor=none;fillColor=none;spacingLeft=4;spacingRight=4;overflow=hidden;rotatable=0;points=[[0,0.5],[1,0.5]];portConstraint=eastwest;fontSize=12;whiteSpace=wrap;html=1;" vertex="1" parent="HQhreaUdOSVcPnw1zrV4-39">
          <mxGeometry y="146" width="160" height="30" as="geometry" />
        </mxCell>
        <mxCell id="HQhreaUdOSVcPnw1zrV4-45" value="pemain" style="text;strokeColor=none;fillColor=none;spacingLeft=4;spacingRight=4;overflow=hidden;rotatable=0;points=[[0,0.5],[1,0.5]];portConstraint=eastwest;fontSize=12;whiteSpace=wrap;html=1;" vertex="1" parent="HQhreaUdOSVcPnw1zrV4-39">
          <mxGeometry y="176" width="160" height="30" as="geometry" />
        </mxCell>
        <mxCell id="HQhreaUdOSVcPnw1zrV4-46" value="sinopsis" style="text;strokeColor=none;fillColor=none;spacingLeft=4;spacingRight=4;overflow=hidden;rotatable=0;points=[[0,0.5],[1,0.5]];portConstraint=eastwest;fontSize=12;whiteSpace=wrap;html=1;" vertex="1" parent="HQhreaUdOSVcPnw1zrV4-39">
          <mxGeometry y="206" width="160" height="30" as="geometry" />
        </mxCell>
        <mxCell id="HQhreaUdOSVcPnw1zrV4-47" value="batasan_umur" style="text;strokeColor=none;fillColor=none;spacingLeft=4;spacingRight=4;overflow=hidden;rotatable=0;points=[[0,0.5],[1,0.5]];portConstraint=eastwest;fontSize=12;whiteSpace=wrap;html=1;" vertex="1" parent="HQhreaUdOSVcPnw1zrV4-39">
          <mxGeometry y="236" width="160" height="30" as="geometry" />
        </mxCell>
        <mxCell id="HQhreaUdOSVcPnw1zrV4-48" value="film_genre" style="swimlane;fontStyle=0;childLayout=stackLayout;horizontal=1;startSize=26;horizontalStack=0;resizeParent=1;resizeParentMax=0;resizeLast=0;collapsible=1;marginBottom=0;align=center;fontSize=14;" vertex="1" parent="HQhreaUdOSVcPnw1zrV4-1">
          <mxGeometry x="1330" y="370" width="160" height="116" as="geometry" />
        </mxCell>
        <mxCell id="HQhreaUdOSVcPnw1zrV4-49" value="id" style="text;strokeColor=none;fillColor=none;spacingLeft=4;spacingRight=4;overflow=hidden;rotatable=0;points=[[0,0.5],[1,0.5]];portConstraint=eastwest;fontSize=12;whiteSpace=wrap;html=1;" vertex="1" parent="HQhreaUdOSVcPnw1zrV4-48">
          <mxGeometry y="26" width="160" height="30" as="geometry" />
        </mxCell>
        <mxCell id="HQhreaUdOSVcPnw1zrV4-50" value="id_film" style="text;strokeColor=none;fillColor=none;spacingLeft=4;spacingRight=4;overflow=hidden;rotatable=0;points=[[0,0.5],[1,0.5]];portConstraint=eastwest;fontSize=12;whiteSpace=wrap;html=1;" vertex="1" parent="HQhreaUdOSVcPnw1zrV4-48">
          <mxGeometry y="56" width="160" height="30" as="geometry" />
        </mxCell>
        <mxCell id="HQhreaUdOSVcPnw1zrV4-51" value="id_genre" style="text;strokeColor=none;fillColor=none;spacingLeft=4;spacingRight=4;overflow=hidden;rotatable=0;points=[[0,0.5],[1,0.5]];portConstraint=eastwest;fontSize=12;whiteSpace=wrap;html=1;" vertex="1" parent="HQhreaUdOSVcPnw1zrV4-48">
          <mxGeometry y="86" width="160" height="30" as="geometry" />
        </mxCell>
        <mxCell id="HQhreaUdOSVcPnw1zrV4-52" value="genre" style="swimlane;fontStyle=0;childLayout=stackLayout;horizontal=1;startSize=26;horizontalStack=0;resizeParent=1;resizeParentMax=0;resizeLast=0;collapsible=1;marginBottom=0;align=center;fontSize=14;" vertex="1" parent="HQhreaUdOSVcPnw1zrV4-1">
          <mxGeometry x="1410" y="570" width="160" height="86" as="geometry" />
        </mxCell>
        <mxCell id="HQhreaUdOSVcPnw1zrV4-53" value="id" style="text;strokeColor=none;fillColor=none;spacingLeft=4;spacingRight=4;overflow=hidden;rotatable=0;points=[[0,0.5],[1,0.5]];portConstraint=eastwest;fontSize=12;whiteSpace=wrap;html=1;" vertex="1" parent="HQhreaUdOSVcPnw1zrV4-52">
          <mxGeometry y="26" width="160" height="30" as="geometry" />
        </mxCell>
        <mxCell id="HQhreaUdOSVcPnw1zrV4-54" value="nama_genre" style="text;strokeColor=none;fillColor=none;spacingLeft=4;spacingRight=4;overflow=hidden;rotatable=0;points=[[0,0.5],[1,0.5]];portConstraint=eastwest;fontSize=12;whiteSpace=wrap;html=1;" vertex="1" parent="HQhreaUdOSVcPnw1zrV4-52">
          <mxGeometry y="56" width="160" height="30" as="geometry" />
        </mxCell>
        <mxCell id="HQhreaUdOSVcPnw1zrV4-55" value="pengunjung" style="swimlane;fontStyle=0;childLayout=stackLayout;horizontal=1;startSize=26;horizontalStack=0;resizeParent=1;resizeParentMax=0;resizeLast=0;collapsible=1;marginBottom=0;align=center;fontSize=14;" vertex="1" parent="HQhreaUdOSVcPnw1zrV4-1">
          <mxGeometry x="1160" y="90" width="160" height="146" as="geometry" />
        </mxCell>
        <mxCell id="HQhreaUdOSVcPnw1zrV4-56" value="id" style="text;strokeColor=none;fillColor=none;spacingLeft=4;spacingRight=4;overflow=hidden;rotatable=0;points=[[0,0.5],[1,0.5]];portConstraint=eastwest;fontSize=12;whiteSpace=wrap;html=1;" vertex="1" parent="HQhreaUdOSVcPnw1zrV4-55">
          <mxGeometry y="26" width="160" height="30" as="geometry" />
        </mxCell>
        <mxCell id="HQhreaUdOSVcPnw1zrV4-57" value="nama" style="text;strokeColor=none;fillColor=none;spacingLeft=4;spacingRight=4;overflow=hidden;rotatable=0;points=[[0,0.5],[1,0.5]];portConstraint=eastwest;fontSize=12;whiteSpace=wrap;html=1;" vertex="1" parent="HQhreaUdOSVcPnw1zrV4-55">
          <mxGeometry y="56" width="160" height="30" as="geometry" />
        </mxCell>
        <mxCell id="HQhreaUdOSVcPnw1zrV4-58" value="no_telp" style="text;strokeColor=none;fillColor=none;spacingLeft=4;spacingRight=4;overflow=hidden;rotatable=0;points=[[0,0.5],[1,0.5]];portConstraint=eastwest;fontSize=12;whiteSpace=wrap;html=1;" vertex="1" parent="HQhreaUdOSVcPnw1zrV4-55">
          <mxGeometry y="86" width="160" height="30" as="geometry" />
        </mxCell>
        <mxCell id="HQhreaUdOSVcPnw1zrV4-59" value="email" style="text;strokeColor=none;fillColor=none;spacingLeft=4;spacingRight=4;overflow=hidden;rotatable=0;points=[[0,0.5],[1,0.5]];portConstraint=eastwest;fontSize=12;whiteSpace=wrap;html=1;" vertex="1" parent="HQhreaUdOSVcPnw1zrV4-55">
          <mxGeometry y="116" width="160" height="30" as="geometry" />
        </mxCell>
        <mxCell id="HQhreaUdOSVcPnw1zrV4-60" value="loket" style="swimlane;fontStyle=0;childLayout=stackLayout;horizontal=1;startSize=26;horizontalStack=0;resizeParent=1;resizeParentMax=0;resizeLast=0;collapsible=1;marginBottom=0;align=center;fontSize=14;" vertex="1" parent="HQhreaUdOSVcPnw1zrV4-1">
          <mxGeometry x="1400" y="5" width="160" height="176" as="geometry" />
        </mxCell>
        <mxCell id="HQhreaUdOSVcPnw1zrV4-61" value="id" style="text;strokeColor=none;fillColor=none;spacingLeft=4;spacingRight=4;overflow=hidden;rotatable=0;points=[[0,0.5],[1,0.5]];portConstraint=eastwest;fontSize=12;whiteSpace=wrap;html=1;" vertex="1" parent="HQhreaUdOSVcPnw1zrV4-60">
          <mxGeometry y="26" width="160" height="30" as="geometry" />
        </mxCell>
        <mxCell id="HQhreaUdOSVcPnw1zrV4-62" value="nama_loket" style="text;strokeColor=none;fillColor=none;spacingLeft=4;spacingRight=4;overflow=hidden;rotatable=0;points=[[0,0.5],[1,0.5]];portConstraint=eastwest;fontSize=12;whiteSpace=wrap;html=1;" vertex="1" parent="HQhreaUdOSVcPnw1zrV4-60">
          <mxGeometry y="56" width="160" height="30" as="geometry" />
        </mxCell>
        <mxCell id="HQhreaUdOSVcPnw1zrV4-63" value="jam_buka" style="text;strokeColor=none;fillColor=none;spacingLeft=4;spacingRight=4;overflow=hidden;rotatable=0;points=[[0,0.5],[1,0.5]];portConstraint=eastwest;fontSize=12;whiteSpace=wrap;html=1;" vertex="1" parent="HQhreaUdOSVcPnw1zrV4-60">
          <mxGeometry y="86" width="160" height="30" as="geometry" />
        </mxCell>
        <mxCell id="HQhreaUdOSVcPnw1zrV4-64" value="jam_tutup" style="text;strokeColor=none;fillColor=none;spacingLeft=4;spacingRight=4;overflow=hidden;rotatable=0;points=[[0,0.5],[1,0.5]];portConstraint=eastwest;fontSize=12;whiteSpace=wrap;html=1;" vertex="1" parent="HQhreaUdOSVcPnw1zrV4-60">
          <mxGeometry y="116" width="160" height="30" as="geometry" />
        </mxCell>
        <mxCell id="HQhreaUdOSVcPnw1zrV4-65" value="status_loket" style="text;strokeColor=none;fillColor=none;spacingLeft=4;spacingRight=4;overflow=hidden;rotatable=0;points=[[0,0.5],[1,0.5]];portConstraint=eastwest;fontSize=12;whiteSpace=wrap;html=1;" vertex="1" parent="HQhreaUdOSVcPnw1zrV4-60">
          <mxGeometry y="146" width="160" height="30" as="geometry" />
        </mxCell>
        <mxCell id="HQhreaUdOSVcPnw1zrV4-66" value="petugas" style="swimlane;fontStyle=0;childLayout=stackLayout;horizontal=1;startSize=26;horizontalStack=0;resizeParent=1;resizeParentMax=0;resizeLast=0;collapsible=1;marginBottom=0;align=center;fontSize=14;" vertex="1" parent="HQhreaUdOSVcPnw1zrV4-1">
          <mxGeometry x="1130" y="-250" width="160" height="236" as="geometry" />
        </mxCell>
        <mxCell id="HQhreaUdOSVcPnw1zrV4-67" value="id" style="text;strokeColor=none;fillColor=none;spacingLeft=4;spacingRight=4;overflow=hidden;rotatable=0;points=[[0,0.5],[1,0.5]];portConstraint=eastwest;fontSize=12;whiteSpace=wrap;html=1;" vertex="1" parent="HQhreaUdOSVcPnw1zrV4-66">
          <mxGeometry y="26" width="160" height="30" as="geometry" />
        </mxCell>
        <mxCell id="HQhreaUdOSVcPnw1zrV4-68" value="nama" style="text;strokeColor=none;fillColor=none;spacingLeft=4;spacingRight=4;overflow=hidden;rotatable=0;points=[[0,0.5],[1,0.5]];portConstraint=eastwest;fontSize=12;whiteSpace=wrap;html=1;" vertex="1" parent="HQhreaUdOSVcPnw1zrV4-66">
          <mxGeometry y="56" width="160" height="30" as="geometry" />
        </mxCell>
        <mxCell id="HQhreaUdOSVcPnw1zrV4-69" value="jabatan" style="text;strokeColor=none;fillColor=none;spacingLeft=4;spacingRight=4;overflow=hidden;rotatable=0;points=[[0,0.5],[1,0.5]];portConstraint=eastwest;fontSize=12;whiteSpace=wrap;html=1;" vertex="1" parent="HQhreaUdOSVcPnw1zrV4-66">
          <mxGeometry y="86" width="160" height="30" as="geometry" />
        </mxCell>
        <mxCell id="HQhreaUdOSVcPnw1zrV4-70" value="alamat" style="text;strokeColor=none;fillColor=none;spacingLeft=4;spacingRight=4;overflow=hidden;rotatable=0;points=[[0,0.5],[1,0.5]];portConstraint=eastwest;fontSize=12;whiteSpace=wrap;html=1;" vertex="1" parent="HQhreaUdOSVcPnw1zrV4-66">
          <mxGeometry y="116" width="160" height="30" as="geometry" />
        </mxCell>
        <mxCell id="HQhreaUdOSVcPnw1zrV4-71" value="no_telp" style="text;strokeColor=none;fillColor=none;spacingLeft=4;spacingRight=4;overflow=hidden;rotatable=0;points=[[0,0.5],[1,0.5]];portConstraint=eastwest;fontSize=12;whiteSpace=wrap;html=1;" vertex="1" parent="HQhreaUdOSVcPnw1zrV4-66">
          <mxGeometry y="146" width="160" height="30" as="geometry" />
        </mxCell>
        <mxCell id="HQhreaUdOSVcPnw1zrV4-72" value="email" style="text;strokeColor=none;fillColor=none;spacingLeft=4;spacingRight=4;overflow=hidden;rotatable=0;points=[[0,0.5],[1,0.5]];portConstraint=eastwest;fontSize=12;whiteSpace=wrap;html=1;" vertex="1" parent="HQhreaUdOSVcPnw1zrV4-66">
          <mxGeometry y="176" width="160" height="30" as="geometry" />
        </mxCell>
        <mxCell id="HQhreaUdOSVcPnw1zrV4-73" value="id_loket" style="text;strokeColor=none;fillColor=none;spacingLeft=4;spacingRight=4;overflow=hidden;rotatable=0;points=[[0,0.5],[1,0.5]];portConstraint=eastwest;fontSize=12;whiteSpace=wrap;html=1;" vertex="1" parent="HQhreaUdOSVcPnw1zrV4-66">
          <mxGeometry y="206" width="160" height="30" as="geometry" />
        </mxCell>
        <mxCell id="HQhreaUdOSVcPnw1zrV4-74" value="" style="edgeStyle=entityRelationEdgeStyle;fontSize=12;html=1;endArrow=ERone;endFill=1;rounded=0;" edge="1" parent="HQhreaUdOSVcPnw1zrV4-1" source="HQhreaUdOSVcPnw1zrV4-3" target="HQhreaUdOSVcPnw1zrV4-11">
          <mxGeometry width="100" height="100" relative="1" as="geometry">
            <mxPoint x="1110" y="320" as="sourcePoint" />
            <mxPoint x="1210" y="220" as="targetPoint" />
            <Array as="points">
              <mxPoint x="590" y="200" />
              <mxPoint x="1100" y="250" />
            </Array>
          </mxGeometry>
        </mxCell>
        <mxCell id="HQhreaUdOSVcPnw1zrV4-75" value="" style="edgeStyle=entityRelationEdgeStyle;fontSize=12;html=1;endArrow=ERone;endFill=1;rounded=0;entryX=1;entryY=0.5;entryDx=0;entryDy=0;exitX=0;exitY=0.5;exitDx=0;exitDy=0;" edge="1" parent="HQhreaUdOSVcPnw1zrV4-1" source="HQhreaUdOSVcPnw1zrV4-11" target="HQhreaUdOSVcPnw1zrV4-3">
          <mxGeometry width="100" height="100" relative="1" as="geometry">
            <mxPoint x="530" y="190" as="sourcePoint" />
            <mxPoint x="660" y="130" as="targetPoint" />
            <Array as="points">
              <mxPoint x="590" y="231" />
              <mxPoint x="440" y="120" />
            </Array>
          </mxGeometry>
        </mxCell>
        <mxCell id="HQhreaUdOSVcPnw1zrV4-76" value="" style="edgeStyle=entityRelationEdgeStyle;fontSize=12;html=1;endArrow=ERone;endFill=1;rounded=0;exitX=0.987;exitY=0.498;exitDx=0;exitDy=0;exitPerimeter=0;" edge="1" parent="HQhreaUdOSVcPnw1zrV4-1" source="HQhreaUdOSVcPnw1zrV4-4" target="HQhreaUdOSVcPnw1zrV4-14">
          <mxGeometry width="100" height="100" relative="1" as="geometry">
            <mxPoint x="640" y="240" as="sourcePoint" />
            <mxPoint x="740" y="140" as="targetPoint" />
          </mxGeometry>
        </mxCell>
        <mxCell id="HQhreaUdOSVcPnw1zrV4-77" value="" style="edgeStyle=entityRelationEdgeStyle;fontSize=12;html=1;endArrow=ERmany;rounded=0;" edge="1" parent="HQhreaUdOSVcPnw1zrV4-1" source="HQhreaUdOSVcPnw1zrV4-14" target="HQhreaUdOSVcPnw1zrV4-4">
          <mxGeometry width="100" height="100" relative="1" as="geometry">
            <mxPoint x="640" y="240" as="sourcePoint" />
            <mxPoint x="740" y="140" as="targetPoint" />
          </mxGeometry>
        </mxCell>
        <mxCell id="HQhreaUdOSVcPnw1zrV4-78" value="" style="edgeStyle=entityRelationEdgeStyle;fontSize=12;html=1;endArrow=ERmany;rounded=0;" edge="1" parent="HQhreaUdOSVcPnw1zrV4-1" source="HQhreaUdOSVcPnw1zrV4-19" target="HQhreaUdOSVcPnw1zrV4-17">
          <mxGeometry width="100" height="100" relative="1" as="geometry">
            <mxPoint x="460" y="330" as="sourcePoint" />
            <mxPoint x="640" y="200" as="targetPoint" />
          </mxGeometry>
        </mxCell>
        <mxCell id="HQhreaUdOSVcPnw1zrV4-79" value="" style="edgeStyle=entityRelationEdgeStyle;fontSize=12;html=1;endArrow=ERone;endFill=1;rounded=0;exitX=0;exitY=0.5;exitDx=0;exitDy=0;" edge="1" parent="HQhreaUdOSVcPnw1zrV4-1" source="HQhreaUdOSVcPnw1zrV4-17" target="HQhreaUdOSVcPnw1zrV4-19">
          <mxGeometry width="100" height="100" relative="1" as="geometry">
            <mxPoint x="660" y="410" as="sourcePoint" />
            <mxPoint x="760" y="310" as="targetPoint" />
          </mxGeometry>
        </mxCell>
        <mxCell id="HQhreaUdOSVcPnw1zrV4-80" value="" style="edgeStyle=entityRelationEdgeStyle;fontSize=12;html=1;endArrow=ERmany;rounded=0;" edge="1" parent="HQhreaUdOSVcPnw1zrV4-1" source="HQhreaUdOSVcPnw1zrV4-14" target="HQhreaUdOSVcPnw1zrV4-36">
          <mxGeometry width="100" height="100" relative="1" as="geometry">
            <mxPoint x="840" y="420" as="sourcePoint" />
            <mxPoint x="940" y="320" as="targetPoint" />
          </mxGeometry>
        </mxCell>
        <mxCell id="HQhreaUdOSVcPnw1zrV4-81" value="" style="edgeStyle=entityRelationEdgeStyle;fontSize=12;html=1;endArrow=ERone;endFill=1;rounded=0;exitX=0;exitY=0.5;exitDx=0;exitDy=0;" edge="1" parent="HQhreaUdOSVcPnw1zrV4-1" source="HQhreaUdOSVcPnw1zrV4-36" target="HQhreaUdOSVcPnw1zrV4-14">
          <mxGeometry width="100" height="100" relative="1" as="geometry">
            <mxPoint x="840" y="420" as="sourcePoint" />
            <mxPoint x="940" y="320" as="targetPoint" />
          </mxGeometry>
        </mxCell>
        <mxCell id="HQhreaUdOSVcPnw1zrV4-82" value="" style="edgeStyle=entityRelationEdgeStyle;fontSize=12;html=1;endArrow=ERone;endFill=1;rounded=0;exitX=1;exitY=0.5;exitDx=0;exitDy=0;" edge="1" parent="HQhreaUdOSVcPnw1zrV4-1" source="HQhreaUdOSVcPnw1zrV4-35" target="HQhreaUdOSVcPnw1zrV4-40">
          <mxGeometry width="100" height="100" relative="1" as="geometry">
            <mxPoint x="850" y="391" as="sourcePoint" />
            <mxPoint x="740" y="241" as="targetPoint" />
          </mxGeometry>
        </mxCell>
        <mxCell id="HQhreaUdOSVcPnw1zrV4-83" value="" style="edgeStyle=entityRelationEdgeStyle;fontSize=12;html=1;endArrow=ERmany;rounded=0;exitX=0;exitY=0.5;exitDx=0;exitDy=0;" edge="1" parent="HQhreaUdOSVcPnw1zrV4-1" source="HQhreaUdOSVcPnw1zrV4-40" target="HQhreaUdOSVcPnw1zrV4-35">
          <mxGeometry width="100" height="100" relative="1" as="geometry">
            <mxPoint x="1040" y="430" as="sourcePoint" />
            <mxPoint x="1140" y="330" as="targetPoint" />
          </mxGeometry>
        </mxCell>
        <mxCell id="HQhreaUdOSVcPnw1zrV4-84" value="" style="edgeStyle=entityRelationEdgeStyle;fontSize=12;html=1;endArrow=ERmany;rounded=0;" edge="1" parent="HQhreaUdOSVcPnw1zrV4-1" source="HQhreaUdOSVcPnw1zrV4-34" target="HQhreaUdOSVcPnw1zrV4-25">
          <mxGeometry width="100" height="100" relative="1" as="geometry">
            <mxPoint x="1110" y="390" as="sourcePoint" />
            <mxPoint x="1210" y="290" as="targetPoint" />
          </mxGeometry>
        </mxCell>
        <mxCell id="HQhreaUdOSVcPnw1zrV4-85" value="" style="edgeStyle=entityRelationEdgeStyle;fontSize=12;html=1;endArrow=ERone;endFill=1;rounded=0;exitX=1;exitY=0.5;exitDx=0;exitDy=0;" edge="1" parent="HQhreaUdOSVcPnw1zrV4-1" source="HQhreaUdOSVcPnw1zrV4-25" target="HQhreaUdOSVcPnw1zrV4-34">
          <mxGeometry width="100" height="100" relative="1" as="geometry">
            <mxPoint x="1330" y="210" as="sourcePoint" />
            <mxPoint x="1050" y="270" as="targetPoint" />
            <Array as="points">
              <mxPoint x="1030" y="116" />
              <mxPoint x="1000" y="116" />
            </Array>
          </mxGeometry>
        </mxCell>
        <mxCell id="HQhreaUdOSVcPnw1zrV4-86" value="" style="edgeStyle=entityRelationEdgeStyle;fontSize=12;html=1;endArrow=ERmany;rounded=0;" edge="1" parent="HQhreaUdOSVcPnw1zrV4-1" source="HQhreaUdOSVcPnw1zrV4-56" target="HQhreaUdOSVcPnw1zrV4-24">
          <mxGeometry width="100" height="100" relative="1" as="geometry">
            <mxPoint x="1140" y="40" as="sourcePoint" />
            <mxPoint x="1240" y="-60" as="targetPoint" />
          </mxGeometry>
        </mxCell>
        <mxCell id="HQhreaUdOSVcPnw1zrV4-87" value="" style="edgeStyle=entityRelationEdgeStyle;fontSize=12;html=1;endArrow=ERone;endFill=1;rounded=0;entryX=0;entryY=0.5;entryDx=0;entryDy=0;exitX=1;exitY=0.5;exitDx=0;exitDy=0;" edge="1" parent="HQhreaUdOSVcPnw1zrV4-1" source="HQhreaUdOSVcPnw1zrV4-24" target="HQhreaUdOSVcPnw1zrV4-56">
          <mxGeometry width="100" height="100" relative="1" as="geometry">
            <mxPoint x="1130" y="100" as="sourcePoint" />
            <mxPoint x="1230" as="targetPoint" />
          </mxGeometry>
        </mxCell>
        <mxCell id="HQhreaUdOSVcPnw1zrV4-88" value="" style="edgeStyle=entityRelationEdgeStyle;fontSize=12;html=1;endArrow=ERmany;rounded=0;" edge="1" parent="HQhreaUdOSVcPnw1zrV4-1" source="HQhreaUdOSVcPnw1zrV4-67" target="HQhreaUdOSVcPnw1zrV4-23">
          <mxGeometry width="100" height="100" relative="1" as="geometry">
            <mxPoint x="1130" as="sourcePoint" />
            <mxPoint x="1230" y="-100" as="targetPoint" />
          </mxGeometry>
        </mxCell>
        <mxCell id="HQhreaUdOSVcPnw1zrV4-89" value="" style="edgeStyle=entityRelationEdgeStyle;fontSize=12;html=1;endArrow=ERone;endFill=1;rounded=0;exitX=1;exitY=0.5;exitDx=0;exitDy=0;" edge="1" parent="HQhreaUdOSVcPnw1zrV4-1" source="HQhreaUdOSVcPnw1zrV4-23" target="HQhreaUdOSVcPnw1zrV4-67">
          <mxGeometry width="100" height="100" relative="1" as="geometry">
            <mxPoint x="1080" y="20" as="sourcePoint" />
            <mxPoint x="1180" y="-80" as="targetPoint" />
          </mxGeometry>
        </mxCell>
        <mxCell id="HQhreaUdOSVcPnw1zrV4-90" value="" style="edgeStyle=entityRelationEdgeStyle;fontSize=12;html=1;endArrow=ERmany;rounded=0;" edge="1" parent="HQhreaUdOSVcPnw1zrV4-1" source="HQhreaUdOSVcPnw1zrV4-61" target="HQhreaUdOSVcPnw1zrV4-73">
          <mxGeometry width="100" height="100" relative="1" as="geometry">
            <mxPoint x="1350" as="sourcePoint" />
            <mxPoint x="1410" y="-60" as="targetPoint" />
          </mxGeometry>
        </mxCell>
        <mxCell id="HQhreaUdOSVcPnw1zrV4-91" value="" style="edgeStyle=entityRelationEdgeStyle;fontSize=12;html=1;endArrow=ERone;endFill=1;rounded=0;exitX=1;exitY=0.5;exitDx=0;exitDy=0;" edge="1" parent="HQhreaUdOSVcPnw1zrV4-1" source="HQhreaUdOSVcPnw1zrV4-73" target="HQhreaUdOSVcPnw1zrV4-61">
          <mxGeometry width="100" height="100" relative="1" as="geometry">
            <mxPoint x="1320" y="30" as="sourcePoint" />
            <mxPoint x="1420" y="-70" as="targetPoint" />
          </mxGeometry>
        </mxCell>
        <mxCell id="HQhreaUdOSVcPnw1zrV4-92" value="" style="edgeStyle=entityRelationEdgeStyle;fontSize=12;html=1;endArrow=ERmany;rounded=0;entryX=1;entryY=0.5;entryDx=0;entryDy=0;" edge="1" parent="HQhreaUdOSVcPnw1zrV4-1" source="HQhreaUdOSVcPnw1zrV4-49" target="HQhreaUdOSVcPnw1zrV4-40">
          <mxGeometry width="100" height="100" relative="1" as="geometry">
            <mxPoint x="1460" y="500" as="sourcePoint" />
            <mxPoint x="1560" y="400" as="targetPoint" />
          </mxGeometry>
        </mxCell>
        <mxCell id="HQhreaUdOSVcPnw1zrV4-93" value="" style="edgeStyle=entityRelationEdgeStyle;fontSize=12;html=1;endArrow=ERone;endFill=1;rounded=0;entryX=0;entryY=0.5;entryDx=0;entryDy=0;exitX=1;exitY=0.5;exitDx=0;exitDy=0;" edge="1" parent="HQhreaUdOSVcPnw1zrV4-1" source="HQhreaUdOSVcPnw1zrV4-40" target="HQhreaUdOSVcPnw1zrV4-49">
          <mxGeometry width="100" height="100" relative="1" as="geometry">
            <mxPoint x="1460" y="500" as="sourcePoint" />
            <mxPoint x="1560" y="400" as="targetPoint" />
          </mxGeometry>
        </mxCell>
        <mxCell id="HQhreaUdOSVcPnw1zrV4-94" value="" style="edgeStyle=entityRelationEdgeStyle;fontSize=12;html=1;endArrow=ERmany;rounded=0;" edge="1" parent="HQhreaUdOSVcPnw1zrV4-1" source="HQhreaUdOSVcPnw1zrV4-53" target="HQhreaUdOSVcPnw1zrV4-51">
          <mxGeometry width="100" height="100" relative="1" as="geometry">
            <mxPoint x="1600" y="610" as="sourcePoint" />
            <mxPoint x="1560" y="520" as="targetPoint" />
          </mxGeometry>
        </mxCell>
        <mxCell id="HQhreaUdOSVcPnw1zrV4-95" value="" style="edgeStyle=entityRelationEdgeStyle;fontSize=12;html=1;endArrow=ERone;endFill=1;rounded=0;" edge="1" parent="HQhreaUdOSVcPnw1zrV4-1" source="HQhreaUdOSVcPnw1zrV4-51" target="HQhreaUdOSVcPnw1zrV4-53">
          <mxGeometry width="100" height="100" relative="1" as="geometry">
            <mxPoint x="1460" y="620" as="sourcePoint" />
            <mxPoint x="1560" y="520" as="targetPoint" />
          </mxGeometry>
        </mxCell>
        <mxCell id="HQhreaUdOSVcPnw1zrV4-96" value="" style="edgeStyle=entityRelationEdgeStyle;fontSize=12;html=1;endArrow=ERone;endFill=1;rounded=0;" edge="1" parent="HQhreaUdOSVcPnw1zrV4-1" source="HQhreaUdOSVcPnw1zrV4-9" target="HQhreaUdOSVcPnw1zrV4-53">
          <mxGeometry width="100" height="100" relative="1" as="geometry">
            <mxPoint x="1360" y="650" as="sourcePoint" />
            <mxPoint x="1460" y="550" as="targetPoint" />
          </mxGeometry>
        </mxCell>
        <mxCell id="HQhreaUdOSVcPnw1zrV4-97" value="" style="edgeStyle=entityRelationEdgeStyle;fontSize=12;html=1;endArrow=ERmany;rounded=0;entryX=1;entryY=0.5;entryDx=0;entryDy=0;exitX=0;exitY=0.5;exitDx=0;exitDy=0;" edge="1" parent="HQhreaUdOSVcPnw1zrV4-1" source="HQhreaUdOSVcPnw1zrV4-53" target="HQhreaUdOSVcPnw1zrV4-9">
          <mxGeometry width="100" height="100" relative="1" as="geometry">
            <mxPoint x="1300" y="350" as="sourcePoint" />
            <mxPoint x="1400" y="250" as="targetPoint" />
            <Array as="points">
              <mxPoint x="810" y="460" />
              <mxPoint x="850" y="500" />
            </Array>
          </mxGeometry>
        </mxCell>
        <mxCell id="8sqPUQHxxFEoTeEpCT0m-0" value="1" style="text;html=1;align=center;verticalAlign=middle;resizable=0;points=[];autosize=1;strokeColor=none;fillColor=none;" vertex="1" parent="HQhreaUdOSVcPnw1zrV4-1">
          <mxGeometry x="425" y="158" width="30" height="30" as="geometry" />
        </mxCell>
        <mxCell id="8sqPUQHxxFEoTeEpCT0m-1" value="*" style="text;html=1;align=center;verticalAlign=middle;resizable=0;points=[];autosize=1;strokeColor=none;fillColor=none;" vertex="1" parent="HQhreaUdOSVcPnw1zrV4-1">
          <mxGeometry x="415" y="228" width="30" height="30" as="geometry" />
        </mxCell>
        <mxCell id="8sqPUQHxxFEoTeEpCT0m-2" value="1" style="text;html=1;align=center;verticalAlign=middle;resizable=0;points=[];autosize=1;strokeColor=none;fillColor=none;" vertex="1" parent="HQhreaUdOSVcPnw1zrV4-1">
          <mxGeometry x="465" y="428" width="30" height="30" as="geometry" />
        </mxCell>
        <mxCell id="8sqPUQHxxFEoTeEpCT0m-3" value="1" style="text;html=1;align=center;verticalAlign=middle;resizable=0;points=[];autosize=1;strokeColor=none;fillColor=none;" vertex="1" parent="HQhreaUdOSVcPnw1zrV4-1">
          <mxGeometry x="720" y="640" width="30" height="30" as="geometry" />
        </mxCell>
        <mxCell id="8sqPUQHxxFEoTeEpCT0m-4" style="edgeStyle=entityRelationEdgeStyle;rounded=0;orthogonalLoop=1;jettySize=auto;html=1;fontSize=12;endArrow=ERone;endFill=1;" edge="1" parent="HQhreaUdOSVcPnw1zrV4-1" source="HQhreaUdOSVcPnw1zrV4-9" target="HQhreaUdOSVcPnw1zrV4-41">
          <mxGeometry relative="1" as="geometry" />
        </mxCell>
        <mxCell id="8sqPUQHxxFEoTeEpCT0m-5" value="1" style="text;html=1;align=center;verticalAlign=middle;resizable=0;points=[];autosize=1;strokeColor=none;fillColor=none;" vertex="1" parent="HQhreaUdOSVcPnw1zrV4-1">
          <mxGeometry x="1065" y="408" width="30" height="30" as="geometry" />
        </mxCell>
        <mxCell id="8sqPUQHxxFEoTeEpCT0m-6" value="1" style="text;html=1;align=center;verticalAlign=middle;resizable=0;points=[];autosize=1;strokeColor=none;fillColor=none;" vertex="1" parent="HQhreaUdOSVcPnw1zrV4-1">
          <mxGeometry x="1065" y="438" width="30" height="30" as="geometry" />
        </mxCell>
        <mxCell id="8sqPUQHxxFEoTeEpCT0m-7" value="*" style="text;html=1;align=center;verticalAlign=middle;resizable=0;points=[];autosize=1;strokeColor=none;fillColor=none;" vertex="1" parent="HQhreaUdOSVcPnw1zrV4-1">
          <mxGeometry x="945" y="238" width="30" height="30" as="geometry" />
        </mxCell>
        <mxCell id="8sqPUQHxxFEoTeEpCT0m-8" value="1" style="text;html=1;align=center;verticalAlign=middle;resizable=0;points=[];autosize=1;strokeColor=none;fillColor=none;" vertex="1" parent="HQhreaUdOSVcPnw1zrV4-1">
          <mxGeometry x="945" y="198" width="30" height="30" as="geometry" />
        </mxCell>
        <mxCell id="8sqPUQHxxFEoTeEpCT0m-9" value="*" style="text;html=1;align=center;verticalAlign=middle;resizable=0;points=[];autosize=1;strokeColor=none;fillColor=none;" vertex="1" parent="HQhreaUdOSVcPnw1zrV4-1">
          <mxGeometry x="940" y="-90" width="30" height="30" as="geometry" />
        </mxCell>
        <mxCell id="8sqPUQHxxFEoTeEpCT0m-10" value="*" style="text;html=1;align=center;verticalAlign=middle;resizable=0;points=[];autosize=1;strokeColor=none;fillColor=none;" vertex="1" parent="HQhreaUdOSVcPnw1zrV4-1">
          <mxGeometry x="940" y="-180" width="30" height="30" as="geometry" />
        </mxCell>
        <mxCell id="8sqPUQHxxFEoTeEpCT0m-11" value="*" style="text;html=1;align=center;verticalAlign=middle;resizable=0;points=[];autosize=1;strokeColor=none;fillColor=none;" vertex="1" parent="HQhreaUdOSVcPnw1zrV4-1">
          <mxGeometry x="940" y="-147" width="30" height="30" as="geometry" />
        </mxCell>
        <mxCell id="8sqPUQHxxFEoTeEpCT0m-12" value="1" style="text;html=1;align=center;verticalAlign=middle;resizable=0;points=[];autosize=1;strokeColor=none;fillColor=none;" vertex="1" parent="HQhreaUdOSVcPnw1zrV4-1">
          <mxGeometry x="1130" y="96" width="30" height="30" as="geometry" />
        </mxCell>
        <mxCell id="8sqPUQHxxFEoTeEpCT0m-13" value="1" style="text;html=1;align=center;verticalAlign=middle;resizable=0;points=[];autosize=1;strokeColor=none;fillColor=none;" vertex="1" parent="HQhreaUdOSVcPnw1zrV4-1">
          <mxGeometry x="1100" y="-240" width="30" height="30" as="geometry" />
        </mxCell>
        <mxCell id="8sqPUQHxxFEoTeEpCT0m-14" value="*" style="text;html=1;align=center;verticalAlign=middle;resizable=0;points=[];autosize=1;strokeColor=none;fillColor=none;" vertex="1" parent="HQhreaUdOSVcPnw1zrV4-1">
          <mxGeometry x="950" y="-80" width="30" height="30" as="geometry" />
        </mxCell>
        <mxCell id="8sqPUQHxxFEoTeEpCT0m-16" value="1" style="text;html=1;align=center;verticalAlign=middle;resizable=0;points=[];autosize=1;strokeColor=none;fillColor=none;" vertex="1" parent="HQhreaUdOSVcPnw1zrV4-1">
          <mxGeometry x="505" y="-12" width="30" height="30" as="geometry" />
        </mxCell>
        <mxCell id="8sqPUQHxxFEoTeEpCT0m-17" value="*" style="text;html=1;align=center;verticalAlign=middle;resizable=0;points=[];autosize=1;strokeColor=none;fillColor=none;" vertex="1" parent="HQhreaUdOSVcPnw1zrV4-1">
          <mxGeometry x="515" y="78" width="30" height="30" as="geometry" />
        </mxCell>
        <mxCell id="8sqPUQHxxFEoTeEpCT0m-18" style="edgeStyle=entityRelationEdgeStyle;rounded=0;orthogonalLoop=1;jettySize=auto;html=1;fontSize=12;endArrow=ERone;endFill=1;" edge="1" parent="HQhreaUdOSVcPnw1zrV4-1" target="HQhreaUdOSVcPnw1zrV4-10">
          <mxGeometry relative="1" as="geometry">
            <mxPoint x="940" y="-149" as="sourcePoint" />
            <Array as="points">
              <mxPoint x="720" y="-149" />
              <mxPoint x="870" y="250" />
              <mxPoint x="720" y="611" />
            </Array>
          </mxGeometry>
        </mxCell>
        <mxCell id="8sqPUQHxxFEoTeEpCT0m-20" value="1" style="text;html=1;align=center;verticalAlign=middle;resizable=0;points=[];autosize=1;strokeColor=none;fillColor=none;" vertex="1" parent="HQhreaUdOSVcPnw1zrV4-1">
          <mxGeometry x="905" y="588" width="30" height="30" as="geometry" />
        </mxCell>
        <mxCell id="8sqPUQHxxFEoTeEpCT0m-21" value="*" style="text;html=1;align=center;verticalAlign=middle;resizable=0;points=[];autosize=1;strokeColor=none;fillColor=none;" vertex="1" parent="HQhreaUdOSVcPnw1zrV4-1">
          <mxGeometry x="905" y="558" width="30" height="30" as="geometry" />
        </mxCell>
        <mxCell id="8sqPUQHxxFEoTeEpCT0m-22" value="*" style="text;html=1;align=center;verticalAlign=middle;resizable=0;points=[];autosize=1;strokeColor=none;fillColor=none;" vertex="1" parent="HQhreaUdOSVcPnw1zrV4-1">
          <mxGeometry x="765" y="268" width="30" height="30" as="geometry" />
        </mxCell>
        <mxCell id="8sqPUQHxxFEoTeEpCT0m-23" value="1" style="text;html=1;align=center;verticalAlign=middle;resizable=0;points=[];autosize=1;strokeColor=none;fillColor=none;" vertex="1" parent="HQhreaUdOSVcPnw1zrV4-1">
          <mxGeometry x="695" y="-2" width="30" height="30" as="geometry" />
        </mxCell>
        <mxCell id="8sqPUQHxxFEoTeEpCT0m-24" value="1" style="text;html=1;align=center;verticalAlign=middle;resizable=0;points=[];autosize=1;strokeColor=none;fillColor=none;" vertex="1" parent="HQhreaUdOSVcPnw1zrV4-1">
          <mxGeometry x="1245" y="398" width="30" height="30" as="geometry" />
        </mxCell>
        <mxCell id="8sqPUQHxxFEoTeEpCT0m-25" value="*" style="text;html=1;align=center;verticalAlign=middle;resizable=0;points=[];autosize=1;strokeColor=none;fillColor=none;" vertex="1" parent="HQhreaUdOSVcPnw1zrV4-1">
          <mxGeometry x="1305" y="388" width="30" height="30" as="geometry" />
        </mxCell>
        <mxCell id="8sqPUQHxxFEoTeEpCT0m-26" value="*" style="text;html=1;align=center;verticalAlign=middle;resizable=0;points=[];autosize=1;strokeColor=none;fillColor=none;" vertex="1" parent="HQhreaUdOSVcPnw1zrV4-1">
          <mxGeometry x="1485" y="438" width="30" height="30" as="geometry" />
        </mxCell>
        <mxCell id="8sqPUQHxxFEoTeEpCT0m-27" value="1" style="text;html=1;align=center;verticalAlign=middle;resizable=0;points=[];autosize=1;strokeColor=none;fillColor=none;" vertex="1" parent="HQhreaUdOSVcPnw1zrV4-1">
          <mxGeometry x="1565" y="588" width="30" height="30" as="geometry" />
        </mxCell>
        <mxCell id="8sqPUQHxxFEoTeEpCT0m-28" value="1" style="text;html=1;align=center;verticalAlign=middle;resizable=0;points=[];autosize=1;strokeColor=none;fillColor=none;" vertex="1" parent="HQhreaUdOSVcPnw1zrV4-1">
          <mxGeometry x="1375" y="18" width="30" height="30" as="geometry" />
        </mxCell>
        <mxCell id="8sqPUQHxxFEoTeEpCT0m-29" value="*" style="text;html=1;align=center;verticalAlign=middle;resizable=0;points=[];autosize=1;strokeColor=none;fillColor=none;" vertex="1" parent="HQhreaUdOSVcPnw1zrV4-1">
          <mxGeometry x="1295" y="-62" width="30" height="30" as="geometry" />
        </mxCell>
      </root>
    </mxGraphModel>
  </diagram>
</mxfile>
